<?xml version="1.0"?>
<svg xmlns="http://www.w3.org/2000/svg" xmlns:xlink="http://www.w3.org/1999/xlink" viewBox="0 0 342.900000 72.000000" width="171.450000mm" height="36.000000mm" version="1.1">
<a xlink:href="mid-0x7f8c25991f30.svg">
<rect x="1.000000" y="1.000000" width="341.900000" height="71.000000" rx="0" ry="0" style="stroke:none;fill:#cccccc;"/>
<rect x="0.000000" y="0.000000" width="341.900000" height="71.000000" rx="0" ry="0" style="stroke:none;fill:#ffffff;"/>
</a>
<text x="10.000000" y="7.000000" font-family="Arial" font-size="7"></text>
<rect x="25.000000" y="25.000000" width="167.700000" height="24.000000" rx="0" ry="0" style="stroke:none;fill:#cccccc;"/>
<rect x="24.000000" y="24.000000" width="167.700000" height="24.000000" rx="0" ry="0" style="stroke:none;fill:#477881;"/>
<text x="107.850000" y="38.000000" font-family="Arial" font-size="7" text-anchor="middle" fill="#FFFFFF">vslider(mid, 0.0f, -7e+01f, 0.0f, 0.1f)</text>
<circle cx="26.000000" cy="26.000000" r="1"/>
<a xlink:href="db2linear-0x7f8c25960aa0.svg">
<rect x="200.700000" y="25.000000" width="38.700000" height="24.000000" rx="0" ry="0" style="stroke:none;fill:#cccccc;"/>
<rect x="199.700000" y="24.000000" width="38.700000" height="24.000000" rx="0" ry="0" style="stroke:none;fill:#003366;"/>
</a>
<a xlink:href="db2linear-0x7f8c25960aa0.svg">
<text x="219.050000" y="38.000000" font-family="Arial" font-size="7" text-anchor="middle" fill="#FFFFFF">db2linear</text>
</a>
<circle cx="201.700000" cy="26.000000" r="1"/>
<line x1="196.700000" y1="35.000000" x2="199.700000" y2="36.000000"  transform="rotate(0.000000,199.700000,36.000000)" style="stroke: black; stroke-width:0.25;"/>
<line x1="196.700000" y1="37.000000" x2="199.700000" y2="36.000000"  transform="rotate(0.000000,199.700000,36.000000)" style="stroke: black; stroke-width:0.25;"/>
<a xlink:href="smooth-0x7f8c25956680.svg">
<rect x="247.400000" y="25.000000" width="64.500000" height="24.000000" rx="0" ry="0" style="stroke:none;fill:#cccccc;"/>
<rect x="246.400000" y="24.000000" width="64.500000" height="24.000000" rx="0" ry="0" style="stroke:none;fill:#003366;"/>
</a>
<a xlink:href="smooth-0x7f8c25956680.svg">
<text x="278.650000" y="38.000000" font-family="Arial" font-size="7" text-anchor="middle" fill="#FFFFFF">smooth(0.999f)</text>
</a>
<circle cx="248.400000" cy="26.000000" r="1"/>
<line x1="243.400000" y1="35.000000" x2="246.400000" y2="36.000000"  transform="rotate(0.000000,246.400000,36.000000)" style="stroke: black; stroke-width:0.25;"/>
<line x1="243.400000" y1="37.000000" x2="246.400000" y2="36.000000"  transform="rotate(0.000000,246.400000,36.000000)" style="stroke: black; stroke-width:0.25;"/>
<line x1="15.000000" y1="15.000000" x2="15.000000" y2="57.000000"  style="stroke: black; stroke-linecap:round; stroke-width:0.25; stroke-dasharray:3,3;"/>
<line x1="15.000000" y1="57.000000" x2="327.900000" y2="57.000000"  style="stroke: black; stroke-linecap:round; stroke-width:0.25; stroke-dasharray:3,3;"/>
<line x1="327.900000" y1="57.000000" x2="327.900000" y2="15.000000"  style="stroke: black; stroke-linecap:round; stroke-width:0.25; stroke-dasharray:3,3;"/>
<line x1="15.000000" y1="15.000000" x2="20.000000" y2="15.000000"  style="stroke: black; stroke-linecap:round; stroke-width:0.25; stroke-dasharray:3,3;"/>
<line x1="119.975000" y1="15.000000" x2="327.900000" y2="15.000000"  style="stroke: black; stroke-linecap:round; stroke-width:0.25; stroke-dasharray:3,3;"/>
<text x="20.000000" y="17.000000" font-family="Arial" font-size="7">gain(vslider(... 0.0f, 0.1f))</text>
<line x1="329.900000" y1="35.000000" x2="332.900000" y2="36.000000"  transform="rotate(0.000000,332.900000,36.000000)" style="stroke: black; stroke-width:0.25;"/>
<line x1="329.900000" y1="37.000000" x2="332.900000" y2="36.000000"  transform="rotate(0.000000,332.900000,36.000000)" style="stroke: black; stroke-width:0.25;"/>
<line x1="191.700000" y1="36.000000" x2="195.700000" y2="36.000000"  style="stroke:black; stroke-linecap:round; stroke-width:0.25;"/>
<line x1="195.700000" y1="36.000000" x2="195.700000" y2="36.000000"  style="stroke:black; stroke-linecap:round; stroke-width:0.25;"/>
<line x1="195.700000" y1="36.000000" x2="199.700000" y2="36.000000"  style="stroke:black; stroke-linecap:round; stroke-width:0.25;"/>
<line x1="238.400000" y1="36.000000" x2="242.400000" y2="36.000000"  style="stroke:black; stroke-linecap:round; stroke-width:0.25;"/>
<line x1="242.400000" y1="36.000000" x2="242.400000" y2="36.000000"  style="stroke:black; stroke-linecap:round; stroke-width:0.25;"/>
<line x1="242.400000" y1="36.000000" x2="246.400000" y2="36.000000"  style="stroke:black; stroke-linecap:round; stroke-width:0.25;"/>
<line x1="310.900000" y1="36.000000" x2="314.900000" y2="36.000000"  style="stroke:black; stroke-linecap:round; stroke-width:0.25;"/>
<line x1="314.900000" y1="36.000000" x2="314.900000" y2="36.000000"  style="stroke:black; stroke-linecap:round; stroke-width:0.25;"/>
<line x1="314.900000" y1="36.000000" x2="318.900000" y2="36.000000"  style="stroke:black; stroke-linecap:round; stroke-width:0.25;"/>
<line x1="318.900000" y1="36.000000" x2="322.900000" y2="36.000000"  style="stroke:black; stroke-linecap:round; stroke-width:0.25;"/>
<line x1="322.900000" y1="36.000000" x2="332.900000" y2="36.000000"  style="stroke:black; stroke-linecap:round; stroke-width:0.25;"/>
</svg>
