<?xml version="1.0"?>
<svg xmlns="http://www.w3.org/2000/svg" xmlns:xlink="http://www.w3.org/1999/xlink" viewBox="0 0 315.700000 156.000000" width="157.850000mm" height="78.000000mm" version="1.1">
<a xlink:href="process.svg">
<rect x="1.000000" y="1.000000" width="314.700000" height="155.000000" rx="0" ry="0" style="stroke:none;fill:#cccccc;"/>
<rect x="0.000000" y="0.000000" width="314.700000" height="155.000000" rx="0" ry="0" style="stroke:none;fill:#ffffff;"/>
</a>
<text x="10.000000" y="7.000000" font-family="Arial" font-size="7"></text>
<rect x="114.850000" y="35.000000" width="24.000000" height="24.000000" rx="0" ry="0" style="stroke:none;fill:#cccccc;"/>
<rect x="113.850000" y="34.000000" width="24.000000" height="24.000000" rx="0" ry="0" style="stroke:none;fill:#4B71A1;"/>
<text x="125.850000" y="48.000000" font-family="Arial" font-size="7" text-anchor="middle" fill="#FFFFFF">+</text>
<circle cx="115.850000" cy="36.000000" r="1"/>
<line x1="110.850000" y1="41.000000" x2="113.850000" y2="42.000000"  transform="rotate(0.000000,113.850000,42.000000)" style="stroke: black; stroke-width:0.25;"/>
<line x1="110.850000" y1="43.000000" x2="113.850000" y2="42.000000"  transform="rotate(0.000000,113.850000,42.000000)" style="stroke: black; stroke-width:0.25;"/>
<line x1="110.850000" y1="49.000000" x2="113.850000" y2="50.000000"  transform="rotate(0.000000,113.850000,50.000000)" style="stroke: black; stroke-width:0.25;"/>
<line x1="110.850000" y1="51.000000" x2="113.850000" y2="50.000000"  transform="rotate(0.000000,113.850000,50.000000)" style="stroke: black; stroke-width:0.25;"/>
<rect x="114.850000" y="67.000000" width="24.000000" height="24.000000" rx="0" ry="0" style="stroke:none;fill:#cccccc;"/>
<rect x="113.850000" y="66.000000" width="24.000000" height="24.000000" rx="0" ry="0" style="stroke:none;fill:#f44800;"/>
<text x="125.850000" y="80.000000" font-family="Arial" font-size="7" text-anchor="middle" fill="#FFFFFF">2</text>
<circle cx="115.850000" cy="68.000000" r="1"/>
<rect x="154.850000" y="51.000000" width="24.000000" height="24.000000" rx="0" ry="0" style="stroke:none;fill:#cccccc;"/>
<rect x="153.850000" y="50.000000" width="24.000000" height="24.000000" rx="0" ry="0" style="stroke:none;fill:#4B71A1;"/>
<text x="165.850000" y="64.000000" font-family="Arial" font-size="7" text-anchor="middle" fill="#FFFFFF">/</text>
<circle cx="155.850000" cy="52.000000" r="1"/>
<line x1="150.850000" y1="57.000000" x2="153.850000" y2="58.000000"  transform="rotate(0.000000,153.850000,58.000000)" style="stroke: black; stroke-width:0.25;"/>
<line x1="150.850000" y1="59.000000" x2="153.850000" y2="58.000000"  transform="rotate(0.000000,153.850000,58.000000)" style="stroke: black; stroke-width:0.25;"/>
<line x1="150.850000" y1="65.000000" x2="153.850000" y2="66.000000"  transform="rotate(0.000000,153.850000,66.000000)" style="stroke: black; stroke-width:0.25;"/>
<line x1="150.850000" y1="67.000000" x2="153.850000" y2="66.000000"  transform="rotate(0.000000,153.850000,66.000000)" style="stroke: black; stroke-width:0.25;"/>
<a xlink:href="gain-0x7ff0649635a0.svg">
<rect x="59.000000" y="99.000000" width="129.000000" height="24.000000" rx="0" ry="0" style="stroke:none;fill:#cccccc;"/>
<rect x="58.000000" y="98.000000" width="129.000000" height="24.000000" rx="0" ry="0" style="stroke:none;fill:#003366;"/>
</a>
<a xlink:href="gain-0x7ff0649635a0.svg">
<text x="122.500000" y="112.000000" font-family="Arial" font-size="7" text-anchor="middle" fill="#FFFFFF">gain(vslider(... 0.0f, 0.1f))</text>
</a>
<circle cx="60.000000" cy="100.000000" r="1"/>
<a xlink:href="vumeter-0x7ff0649945a0.svg">
<rect x="196.000000" y="99.000000" width="38.700000" height="24.000000" rx="0" ry="0" style="stroke:none;fill:#cccccc;"/>
<rect x="195.000000" y="98.000000" width="38.700000" height="24.000000" rx="0" ry="0" style="stroke:none;fill:#003366;"/>
</a>
<a xlink:href="vumeter-0x7ff0649945a0.svg">
<text x="214.350000" y="112.000000" font-family="Arial" font-size="7" text-anchor="middle" fill="#FFFFFF">vumeter</text>
</a>
<circle cx="197.000000" cy="100.000000" r="1"/>
<line x1="192.000000" y1="109.000000" x2="195.000000" y2="110.000000"  transform="rotate(0.000000,195.000000,110.000000)" style="stroke: black; stroke-width:0.25;"/>
<line x1="192.000000" y1="111.000000" x2="195.000000" y2="110.000000"  transform="rotate(0.000000,195.000000,110.000000)" style="stroke: black; stroke-width:0.25;"/>
<rect x="250.700000" y="67.000000" width="24.000000" height="24.000000" rx="0" ry="0" style="stroke:none;fill:#cccccc;"/>
<rect x="249.700000" y="66.000000" width="24.000000" height="24.000000" rx="0" ry="0" style="stroke:none;fill:#4B71A1;"/>
<text x="261.700000" y="80.000000" font-family="Arial" font-size="7" text-anchor="middle" fill="#FFFFFF">*</text>
<circle cx="251.700000" cy="68.000000" r="1"/>
<line x1="246.700000" y1="73.000000" x2="249.700000" y2="74.000000"  transform="rotate(0.000000,249.700000,74.000000)" style="stroke: black; stroke-width:0.25;"/>
<line x1="246.700000" y1="75.000000" x2="249.700000" y2="74.000000"  transform="rotate(0.000000,249.700000,74.000000)" style="stroke: black; stroke-width:0.25;"/>
<line x1="246.700000" y1="81.000000" x2="249.700000" y2="82.000000"  transform="rotate(0.000000,249.700000,82.000000)" style="stroke: black; stroke-width:0.25;"/>
<line x1="246.700000" y1="83.000000" x2="249.700000" y2="82.000000"  transform="rotate(0.000000,249.700000,82.000000)" style="stroke: black; stroke-width:0.25;"/>
<line x1="49.000000" y1="25.000000" x2="49.000000" y2="131.000000"  style="stroke: black; stroke-linecap:round; stroke-width:0.25; stroke-dasharray:3,3;"/>
<line x1="49.000000" y1="131.000000" x2="282.700000" y2="131.000000"  style="stroke: black; stroke-linecap:round; stroke-width:0.25; stroke-dasharray:3,3;"/>
<line x1="282.700000" y1="131.000000" x2="282.700000" y2="25.000000"  style="stroke: black; stroke-linecap:round; stroke-width:0.25; stroke-dasharray:3,3;"/>
<line x1="49.000000" y1="25.000000" x2="54.000000" y2="25.000000"  style="stroke: black; stroke-linecap:round; stroke-width:0.25; stroke-dasharray:3,3;"/>
<line x1="95.925000" y1="25.000000" x2="282.700000" y2="25.000000"  style="stroke: black; stroke-linecap:round; stroke-width:0.25; stroke-dasharray:3,3;"/>
<text x="54.000000" y="27.000000" font-family="Arial" font-size="7">hgroup(MID)</text>
<line x1="15.000000" y1="15.000000" x2="15.000000" y2="141.000000"  style="stroke: black; stroke-linecap:round; stroke-width:0.25; stroke-dasharray:3,3;"/>
<line x1="15.000000" y1="141.000000" x2="300.700000" y2="141.000000"  style="stroke: black; stroke-linecap:round; stroke-width:0.25; stroke-dasharray:3,3;"/>
<line x1="300.700000" y1="141.000000" x2="300.700000" y2="15.000000"  style="stroke: black; stroke-linecap:round; stroke-width:0.25; stroke-dasharray:3,3;"/>
<line x1="15.000000" y1="15.000000" x2="20.000000" y2="15.000000"  style="stroke: black; stroke-linecap:round; stroke-width:0.25; stroke-dasharray:3,3;"/>
<line x1="36.125000" y1="15.000000" x2="300.700000" y2="15.000000"  style="stroke: black; stroke-linecap:round; stroke-width:0.25; stroke-dasharray:3,3;"/>
<text x="20.000000" y="17.000000" font-family="Arial" font-size="7">mid</text>
<line x1="302.700000" y1="77.000000" x2="305.700000" y2="78.000000"  transform="rotate(0.000000,305.700000,78.000000)" style="stroke: black; stroke-width:0.25;"/>
<line x1="302.700000" y1="79.000000" x2="305.700000" y2="78.000000"  transform="rotate(0.000000,305.700000,78.000000)" style="stroke: black; stroke-width:0.25;"/>
<line x1="10.000000" y1="74.000000" x2="20.000000" y2="74.000000"  style="stroke:black; stroke-linecap:round; stroke-width:0.25;"/>
<line x1="10.000000" y1="82.000000" x2="20.000000" y2="82.000000"  style="stroke:black; stroke-linecap:round; stroke-width:0.25;"/>
<line x1="20.000000" y1="74.000000" x2="24.000000" y2="74.000000"  style="stroke:black; stroke-linecap:round; stroke-width:0.25;"/>
<line x1="20.000000" y1="82.000000" x2="24.000000" y2="82.000000"  style="stroke:black; stroke-linecap:round; stroke-width:0.25;"/>
<line x1="24.000000" y1="74.000000" x2="28.000000" y2="74.000000"  style="stroke:black; stroke-linecap:round; stroke-width:0.25;"/>
<line x1="24.000000" y1="82.000000" x2="28.000000" y2="82.000000"  style="stroke:black; stroke-linecap:round; stroke-width:0.25;"/>
<line x1="28.000000" y1="42.000000" x2="44.000000" y2="42.000000"  style="stroke:black; stroke-linecap:round; stroke-width:0.25;"/>
<line x1="28.000000" y1="74.000000" x2="28.000000" y2="42.000000"  style="stroke:black; stroke-linecap:round; stroke-width:0.25;"/>
<line x1="28.000000" y1="74.000000" x2="28.000000" y2="74.000000"  style="stroke:black; stroke-linecap:round; stroke-width:0.25;"/>
<line x1="28.000000" y1="82.000000" x2="36.000000" y2="82.000000"  style="stroke:black; stroke-linecap:round; stroke-width:0.25;"/>
<line x1="36.000000" y1="50.000000" x2="44.000000" y2="50.000000"  style="stroke:black; stroke-linecap:round; stroke-width:0.25;"/>
<line x1="36.000000" y1="82.000000" x2="36.000000" y2="50.000000"  style="stroke:black; stroke-linecap:round; stroke-width:0.25;"/>
<line x1="44.000000" y1="42.000000" x2="54.000000" y2="42.000000"  style="stroke:black; stroke-linecap:round; stroke-width:0.25;"/>
<line x1="44.000000" y1="50.000000" x2="54.000000" y2="50.000000"  style="stroke:black; stroke-linecap:round; stroke-width:0.25;"/>
<line x1="54.000000" y1="42.000000" x2="109.850000" y2="42.000000"  style="stroke:black; stroke-linecap:round; stroke-width:0.25;"/>
<line x1="54.000000" y1="50.000000" x2="109.850000" y2="50.000000"  style="stroke:black; stroke-linecap:round; stroke-width:0.25;"/>
<line x1="109.850000" y1="42.000000" x2="109.850000" y2="42.000000"  style="stroke:black; stroke-linecap:round; stroke-width:0.25;"/>
<line x1="109.850000" y1="42.000000" x2="113.850000" y2="42.000000"  style="stroke:black; stroke-linecap:round; stroke-width:0.25;"/>
<line x1="109.850000" y1="50.000000" x2="109.850000" y2="50.000000"  style="stroke:black; stroke-linecap:round; stroke-width:0.25;"/>
<line x1="109.850000" y1="50.000000" x2="113.850000" y2="50.000000"  style="stroke:black; stroke-linecap:round; stroke-width:0.25;"/>
<line x1="137.850000" y1="46.000000" x2="141.850000" y2="46.000000"  style="stroke:black; stroke-linecap:round; stroke-width:0.25;"/>
<line x1="137.850000" y1="78.000000" x2="141.850000" y2="78.000000"  style="stroke:black; stroke-linecap:round; stroke-width:0.25;"/>
<line x1="141.850000" y1="46.000000" x2="149.850000" y2="46.000000"  style="stroke:black; stroke-linecap:round; stroke-width:0.25;"/>
<line x1="141.850000" y1="66.000000" x2="149.850000" y2="66.000000"  style="stroke:black; stroke-linecap:round; stroke-width:0.25;"/>
<line x1="141.850000" y1="78.000000" x2="141.850000" y2="66.000000"  style="stroke:black; stroke-linecap:round; stroke-width:0.25;"/>
<line x1="141.850000" y1="78.000000" x2="141.850000" y2="78.000000"  style="stroke:black; stroke-linecap:round; stroke-width:0.25;"/>
<line x1="149.850000" y1="46.000000" x2="149.850000" y2="58.000000"  style="stroke:black; stroke-linecap:round; stroke-width:0.25;"/>
<line x1="149.850000" y1="58.000000" x2="149.850000" y2="58.000000"  style="stroke:black; stroke-linecap:round; stroke-width:0.25;"/>
<line x1="149.850000" y1="58.000000" x2="153.850000" y2="58.000000"  style="stroke:black; stroke-linecap:round; stroke-width:0.25;"/>
<line x1="149.850000" y1="66.000000" x2="153.850000" y2="66.000000"  style="stroke:black; stroke-linecap:round; stroke-width:0.25;"/>
<line x1="177.850000" y1="62.000000" x2="181.850000" y2="62.000000"  style="stroke:black; stroke-linecap:round; stroke-width:0.25;"/>
<line x1="181.850000" y1="62.000000" x2="237.700000" y2="62.000000"  style="stroke:black; stroke-linecap:round; stroke-width:0.25;"/>
<line x1="187.000000" y1="110.000000" x2="191.000000" y2="110.000000"  style="stroke:black; stroke-linecap:round; stroke-width:0.25;"/>
<line x1="191.000000" y1="110.000000" x2="191.000000" y2="110.000000"  style="stroke:black; stroke-linecap:round; stroke-width:0.25;"/>
<line x1="191.000000" y1="110.000000" x2="195.000000" y2="110.000000"  style="stroke:black; stroke-linecap:round; stroke-width:0.25;"/>
<line x1="233.700000" y1="110.000000" x2="237.700000" y2="110.000000"  style="stroke:black; stroke-linecap:round; stroke-width:0.25;"/>
<line x1="237.700000" y1="62.000000" x2="245.700000" y2="62.000000"  style="stroke:black; stroke-linecap:round; stroke-width:0.25;"/>
<line x1="237.700000" y1="82.000000" x2="245.700000" y2="82.000000"  style="stroke:black; stroke-linecap:round; stroke-width:0.25;"/>
<line x1="237.700000" y1="110.000000" x2="237.700000" y2="82.000000"  style="stroke:black; stroke-linecap:round; stroke-width:0.25;"/>
<line x1="237.700000" y1="110.000000" x2="237.700000" y2="110.000000"  style="stroke:black; stroke-linecap:round; stroke-width:0.25;"/>
<line x1="245.700000" y1="62.000000" x2="245.700000" y2="74.000000"  style="stroke:black; stroke-linecap:round; stroke-width:0.25;"/>
<line x1="245.700000" y1="74.000000" x2="245.700000" y2="74.000000"  style="stroke:black; stroke-linecap:round; stroke-width:0.25;"/>
<line x1="245.700000" y1="74.000000" x2="249.700000" y2="74.000000"  style="stroke:black; stroke-linecap:round; stroke-width:0.25;"/>
<line x1="245.700000" y1="82.000000" x2="249.700000" y2="82.000000"  style="stroke:black; stroke-linecap:round; stroke-width:0.25;"/>
<line x1="273.700000" y1="78.000000" x2="277.700000" y2="78.000000"  style="stroke:black; stroke-linecap:round; stroke-width:0.25;"/>
<line x1="277.700000" y1="78.000000" x2="287.700000" y2="78.000000"  style="stroke:black; stroke-linecap:round; stroke-width:0.25;"/>
<line x1="287.700000" y1="78.000000" x2="287.700000" y2="78.000000"  style="stroke:black; stroke-linecap:round; stroke-width:0.25;"/>
<line x1="287.700000" y1="78.000000" x2="291.700000" y2="78.000000"  style="stroke:black; stroke-linecap:round; stroke-width:0.25;"/>
<line x1="291.700000" y1="78.000000" x2="295.700000" y2="78.000000"  style="stroke:black; stroke-linecap:round; stroke-width:0.25;"/>
<line x1="295.700000" y1="78.000000" x2="305.700000" y2="78.000000"  style="stroke:black; stroke-linecap:round; stroke-width:0.25;"/>
</svg>
