<?xml version="1.0"?>
<svg xmlns="http://www.w3.org/2000/svg" xmlns:xlink="http://www.w3.org/1999/xlink" viewBox="0 0 314.800000 284.000000" width="157.400000mm" height="142.000000mm" version="1.1">
<rect x="1.000000" y="1.000000" width="313.800000" height="283.000000" rx="0" ry="0" style="stroke:none;fill:#cccccc;"/>
<rect x="0.000000" y="0.000000" width="313.800000" height="283.000000" rx="0" ry="0" style="stroke:none;fill:#ffffff;"/>
<text x="10.000000" y="7.000000" font-family="Arial" font-size="7"></text>
<rect x="41.000000" y="115.000000" width="24.000000" height="24.000000" rx="0" ry="0" style="stroke:none;fill:#cccccc;"/>
<rect x="40.000000" y="114.000000" width="24.000000" height="24.000000" rx="0" ry="0" style="stroke:none;fill:#47945E;"/>
<text x="52.000000" y="128.000000" font-family="Arial" font-size="7" text-anchor="middle" fill="#FFFFFF">L</text>
<circle cx="42.000000" cy="116.000000" r="1"/>
<line x1="37.000000" y1="125.000000" x2="40.000000" y2="126.000000"  transform="rotate(0.000000,40.000000,126.000000)" style="stroke: black; stroke-width:0.25;"/>
<line x1="37.000000" y1="127.000000" x2="40.000000" y2="126.000000"  transform="rotate(0.000000,40.000000,126.000000)" style="stroke: black; stroke-width:0.25;"/>
<rect x="41.000000" y="147.000000" width="24.000000" height="24.000000" rx="0" ry="0" style="stroke:none;fill:#cccccc;"/>
<rect x="40.000000" y="146.000000" width="24.000000" height="24.000000" rx="0" ry="0" style="stroke:none;fill:#47945E;"/>
<text x="52.000000" y="160.000000" font-family="Arial" font-size="7" text-anchor="middle" fill="#FFFFFF">R</text>
<circle cx="42.000000" cy="148.000000" r="1"/>
<line x1="37.000000" y1="157.000000" x2="40.000000" y2="158.000000"  transform="rotate(0.000000,40.000000,158.000000)" style="stroke: black; stroke-width:0.25;"/>
<line x1="37.000000" y1="159.000000" x2="40.000000" y2="158.000000"  transform="rotate(0.000000,40.000000,158.000000)" style="stroke: black; stroke-width:0.25;"/>
<rect x="73.000000" y="115.000000" width="24.000000" height="24.000000" rx="0" ry="0" style="stroke:none;fill:#cccccc;"/>
<rect x="72.000000" y="114.000000" width="24.000000" height="24.000000" rx="0" ry="0" style="stroke:none;fill:#47945E;"/>
<text x="84.000000" y="128.000000" font-family="Arial" font-size="7" text-anchor="middle" fill="#FFFFFF">L</text>
<circle cx="74.000000" cy="116.000000" r="1"/>
<rect x="73.000000" y="147.000000" width="24.000000" height="24.000000" rx="0" ry="0" style="stroke:none;fill:#cccccc;"/>
<rect x="72.000000" y="146.000000" width="24.000000" height="24.000000" rx="0" ry="0" style="stroke:none;fill:#47945E;"/>
<text x="84.000000" y="160.000000" font-family="Arial" font-size="7" text-anchor="middle" fill="#FFFFFF">R</text>
<circle cx="74.000000" cy="148.000000" r="1"/>
<a xlink:href="mid-0x7fc6cc74c500.svg">
<rect x="192.900000" y="35.000000" width="24.000000" height="24.000000" rx="0" ry="0" style="stroke:none;fill:#cccccc;"/>
<rect x="191.900000" y="34.000000" width="24.000000" height="24.000000" rx="0" ry="0" style="stroke:none;fill:#003366;"/>
</a>
<a xlink:href="mid-0x7fc6cc74c500.svg">
<text x="203.900000" y="48.000000" font-family="Arial" font-size="7" text-anchor="middle" fill="#FFFFFF">mid</text>
</a>
<circle cx="193.900000" cy="36.000000" r="1"/>
<line x1="188.900000" y1="41.000000" x2="191.900000" y2="42.000000"  transform="rotate(0.000000,191.900000,42.000000)" style="stroke: black; stroke-width:0.25;"/>
<line x1="188.900000" y1="43.000000" x2="191.900000" y2="42.000000"  transform="rotate(0.000000,191.900000,42.000000)" style="stroke: black; stroke-width:0.25;"/>
<line x1="188.900000" y1="49.000000" x2="191.900000" y2="50.000000"  transform="rotate(0.000000,191.900000,50.000000)" style="stroke: black; stroke-width:0.25;"/>
<line x1="188.900000" y1="51.000000" x2="191.900000" y2="50.000000"  transform="rotate(0.000000,191.900000,50.000000)" style="stroke: black; stroke-width:0.25;"/>
<a xlink:href="side-0x7fc6cc74c7b0.svg">
<rect x="192.000000" y="67.000000" width="25.800000" height="24.000000" rx="0" ry="0" style="stroke:none;fill:#cccccc;"/>
<rect x="191.000000" y="66.000000" width="25.800000" height="24.000000" rx="0" ry="0" style="stroke:none;fill:#003366;"/>
</a>
<a xlink:href="side-0x7fc6cc74c7b0.svg">
<text x="203.900000" y="80.000000" font-family="Arial" font-size="7" text-anchor="middle" fill="#FFFFFF">side</text>
</a>
<circle cx="193.000000" cy="68.000000" r="1"/>
<line x1="188.000000" y1="73.000000" x2="191.000000" y2="74.000000"  transform="rotate(0.000000,191.000000,74.000000)" style="stroke: black; stroke-width:0.25;"/>
<line x1="188.000000" y1="75.000000" x2="191.000000" y2="74.000000"  transform="rotate(0.000000,191.000000,74.000000)" style="stroke: black; stroke-width:0.25;"/>
<line x1="188.000000" y1="81.000000" x2="191.000000" y2="82.000000"  transform="rotate(0.000000,191.000000,82.000000)" style="stroke: black; stroke-width:0.25;"/>
<line x1="188.000000" y1="83.000000" x2="191.000000" y2="82.000000"  transform="rotate(0.000000,191.000000,82.000000)" style="stroke: black; stroke-width:0.25;"/>
<rect x="233.800000" y="51.000000" width="24.000000" height="24.000000" rx="0" ry="0" style="stroke:none;fill:#cccccc;"/>
<rect x="232.800000" y="50.000000" width="24.000000" height="24.000000" rx="0" ry="0" style="stroke:none;fill:#4B71A1;"/>
<text x="244.800000" y="64.000000" font-family="Arial" font-size="7" text-anchor="middle" fill="#FFFFFF">+</text>
<circle cx="234.800000" cy="52.000000" r="1"/>
<line x1="229.800000" y1="57.000000" x2="232.800000" y2="58.000000"  transform="rotate(0.000000,232.800000,58.000000)" style="stroke: black; stroke-width:0.25;"/>
<line x1="229.800000" y1="59.000000" x2="232.800000" y2="58.000000"  transform="rotate(0.000000,232.800000,58.000000)" style="stroke: black; stroke-width:0.25;"/>
<line x1="229.800000" y1="65.000000" x2="232.800000" y2="66.000000"  transform="rotate(0.000000,232.800000,66.000000)" style="stroke: black; stroke-width:0.25;"/>
<line x1="229.800000" y1="67.000000" x2="232.800000" y2="66.000000"  transform="rotate(0.000000,232.800000,66.000000)" style="stroke: black; stroke-width:0.25;"/>
<a xlink:href="mid-0x7fc6cc74c500.svg">
<rect x="192.900000" y="99.000000" width="24.000000" height="24.000000" rx="0" ry="0" style="stroke:none;fill:#cccccc;"/>
<rect x="191.900000" y="98.000000" width="24.000000" height="24.000000" rx="0" ry="0" style="stroke:none;fill:#003366;"/>
</a>
<a xlink:href="mid-0x7fc6cc74c500.svg">
<text x="203.900000" y="112.000000" font-family="Arial" font-size="7" text-anchor="middle" fill="#FFFFFF">mid</text>
</a>
<circle cx="193.900000" cy="100.000000" r="1"/>
<line x1="188.900000" y1="105.000000" x2="191.900000" y2="106.000000"  transform="rotate(0.000000,191.900000,106.000000)" style="stroke: black; stroke-width:0.25;"/>
<line x1="188.900000" y1="107.000000" x2="191.900000" y2="106.000000"  transform="rotate(0.000000,191.900000,106.000000)" style="stroke: black; stroke-width:0.25;"/>
<line x1="188.900000" y1="113.000000" x2="191.900000" y2="114.000000"  transform="rotate(0.000000,191.900000,114.000000)" style="stroke: black; stroke-width:0.25;"/>
<line x1="188.900000" y1="115.000000" x2="191.900000" y2="114.000000"  transform="rotate(0.000000,191.900000,114.000000)" style="stroke: black; stroke-width:0.25;"/>
<a xlink:href="side-0x7fc6cc74c7b0.svg">
<rect x="192.000000" y="131.000000" width="25.800000" height="24.000000" rx="0" ry="0" style="stroke:none;fill:#cccccc;"/>
<rect x="191.000000" y="130.000000" width="25.800000" height="24.000000" rx="0" ry="0" style="stroke:none;fill:#003366;"/>
</a>
<a xlink:href="side-0x7fc6cc74c7b0.svg">
<text x="203.900000" y="144.000000" font-family="Arial" font-size="7" text-anchor="middle" fill="#FFFFFF">side</text>
</a>
<circle cx="193.000000" cy="132.000000" r="1"/>
<line x1="188.000000" y1="137.000000" x2="191.000000" y2="138.000000"  transform="rotate(0.000000,191.000000,138.000000)" style="stroke: black; stroke-width:0.25;"/>
<line x1="188.000000" y1="139.000000" x2="191.000000" y2="138.000000"  transform="rotate(0.000000,191.000000,138.000000)" style="stroke: black; stroke-width:0.25;"/>
<line x1="188.000000" y1="145.000000" x2="191.000000" y2="146.000000"  transform="rotate(0.000000,191.000000,146.000000)" style="stroke: black; stroke-width:0.25;"/>
<line x1="188.000000" y1="147.000000" x2="191.000000" y2="146.000000"  transform="rotate(0.000000,191.000000,146.000000)" style="stroke: black; stroke-width:0.25;"/>
<rect x="233.800000" y="115.000000" width="24.000000" height="24.000000" rx="0" ry="0" style="stroke:none;fill:#cccccc;"/>
<rect x="232.800000" y="114.000000" width="24.000000" height="24.000000" rx="0" ry="0" style="stroke:none;fill:#4B71A1;"/>
<text x="244.800000" y="128.000000" font-family="Arial" font-size="7" text-anchor="middle" fill="#FFFFFF">-</text>
<circle cx="234.800000" cy="116.000000" r="1"/>
<line x1="229.800000" y1="121.000000" x2="232.800000" y2="122.000000"  transform="rotate(0.000000,232.800000,122.000000)" style="stroke: black; stroke-width:0.25;"/>
<line x1="229.800000" y1="123.000000" x2="232.800000" y2="122.000000"  transform="rotate(0.000000,232.800000,122.000000)" style="stroke: black; stroke-width:0.25;"/>
<line x1="229.800000" y1="129.000000" x2="232.800000" y2="130.000000"  transform="rotate(0.000000,232.800000,130.000000)" style="stroke: black; stroke-width:0.25;"/>
<line x1="229.800000" y1="131.000000" x2="232.800000" y2="130.000000"  transform="rotate(0.000000,232.800000,130.000000)" style="stroke: black; stroke-width:0.25;"/>
<rect x="192.900000" y="163.000000" width="24.000000" height="24.000000" rx="0" ry="0" style="stroke:none;fill:#cccccc;"/>
<rect x="191.900000" y="162.000000" width="24.000000" height="24.000000" rx="0" ry="0" style="stroke:none;fill:#f44800;"/>
<text x="203.900000" y="176.000000" font-family="Arial" font-size="7" text-anchor="middle" fill="#FFFFFF">0</text>
<circle cx="193.900000" cy="164.000000" r="1"/>
<a xlink:href="side-0x7fc6cc74c7b0.svg">
<rect x="192.000000" y="195.000000" width="25.800000" height="24.000000" rx="0" ry="0" style="stroke:none;fill:#cccccc;"/>
<rect x="191.000000" y="194.000000" width="25.800000" height="24.000000" rx="0" ry="0" style="stroke:none;fill:#003366;"/>
</a>
<a xlink:href="side-0x7fc6cc74c7b0.svg">
<text x="203.900000" y="208.000000" font-family="Arial" font-size="7" text-anchor="middle" fill="#FFFFFF">side</text>
</a>
<circle cx="193.000000" cy="196.000000" r="1"/>
<line x1="188.000000" y1="201.000000" x2="191.000000" y2="202.000000"  transform="rotate(0.000000,191.000000,202.000000)" style="stroke: black; stroke-width:0.25;"/>
<line x1="188.000000" y1="203.000000" x2="191.000000" y2="202.000000"  transform="rotate(0.000000,191.000000,202.000000)" style="stroke: black; stroke-width:0.25;"/>
<line x1="188.000000" y1="209.000000" x2="191.000000" y2="210.000000"  transform="rotate(0.000000,191.000000,210.000000)" style="stroke: black; stroke-width:0.25;"/>
<line x1="188.000000" y1="211.000000" x2="191.000000" y2="210.000000"  transform="rotate(0.000000,191.000000,210.000000)" style="stroke: black; stroke-width:0.25;"/>
<rect x="233.800000" y="179.000000" width="24.000000" height="24.000000" rx="0" ry="0" style="stroke:none;fill:#cccccc;"/>
<rect x="232.800000" y="178.000000" width="24.000000" height="24.000000" rx="0" ry="0" style="stroke:none;fill:#4B71A1;"/>
<text x="244.800000" y="192.000000" font-family="Arial" font-size="7" text-anchor="middle" fill="#FFFFFF">-</text>
<circle cx="234.800000" cy="180.000000" r="1"/>
<line x1="229.800000" y1="185.000000" x2="232.800000" y2="186.000000"  transform="rotate(0.000000,232.800000,186.000000)" style="stroke: black; stroke-width:0.25;"/>
<line x1="229.800000" y1="187.000000" x2="232.800000" y2="186.000000"  transform="rotate(0.000000,232.800000,186.000000)" style="stroke: black; stroke-width:0.25;"/>
<line x1="229.800000" y1="193.000000" x2="232.800000" y2="194.000000"  transform="rotate(0.000000,232.800000,194.000000)" style="stroke: black; stroke-width:0.25;"/>
<line x1="229.800000" y1="195.000000" x2="232.800000" y2="194.000000"  transform="rotate(0.000000,232.800000,194.000000)" style="stroke: black; stroke-width:0.25;"/>
<a xlink:href="side-0x7fc6cc74c7b0.svg">
<rect x="212.000000" y="227.000000" width="25.800000" height="24.000000" rx="0" ry="0" style="stroke:none;fill:#cccccc;"/>
<rect x="211.000000" y="226.000000" width="25.800000" height="24.000000" rx="0" ry="0" style="stroke:none;fill:#003366;"/>
</a>
<a xlink:href="side-0x7fc6cc74c7b0.svg">
<text x="223.900000" y="240.000000" font-family="Arial" font-size="7" text-anchor="middle" fill="#FFFFFF">side</text>
</a>
<circle cx="213.000000" cy="228.000000" r="1"/>
<line x1="208.000000" y1="233.000000" x2="211.000000" y2="234.000000"  transform="rotate(0.000000,211.000000,234.000000)" style="stroke: black; stroke-width:0.25;"/>
<line x1="208.000000" y1="235.000000" x2="211.000000" y2="234.000000"  transform="rotate(0.000000,211.000000,234.000000)" style="stroke: black; stroke-width:0.25;"/>
<line x1="208.000000" y1="241.000000" x2="211.000000" y2="242.000000"  transform="rotate(0.000000,211.000000,242.000000)" style="stroke: black; stroke-width:0.25;"/>
<line x1="208.000000" y1="243.000000" x2="211.000000" y2="242.000000"  transform="rotate(0.000000,211.000000,242.000000)" style="stroke: black; stroke-width:0.25;"/>
<line x1="182.000000" y1="25.000000" x2="182.000000" y2="259.000000"  style="stroke: black; stroke-linecap:round; stroke-width:0.25; stroke-dasharray:3,3;"/>
<line x1="182.000000" y1="259.000000" x2="265.800000" y2="259.000000"  style="stroke: black; stroke-linecap:round; stroke-width:0.25; stroke-dasharray:3,3;"/>
<line x1="265.800000" y1="259.000000" x2="265.800000" y2="25.000000"  style="stroke: black; stroke-linecap:round; stroke-width:0.25; stroke-dasharray:3,3;"/>
<line x1="182.000000" y1="25.000000" x2="187.000000" y2="25.000000"  style="stroke: black; stroke-linecap:round; stroke-width:0.25; stroke-dasharray:3,3;"/>
<line x1="241.825000" y1="25.000000" x2="265.800000" y2="25.000000"  style="stroke: black; stroke-linecap:round; stroke-width:0.25; stroke-dasharray:3,3;"/>
<text x="187.000000" y="27.000000" font-family="Arial" font-size="7">hgroup(S.T.ONE)</text>
<line x1="15.000000" y1="15.000000" x2="15.000000" y2="269.000000"  style="stroke: black; stroke-linecap:round; stroke-width:0.25; stroke-dasharray:3,3;"/>
<line x1="15.000000" y1="269.000000" x2="299.800000" y2="269.000000"  style="stroke: black; stroke-linecap:round; stroke-width:0.25; stroke-dasharray:3,3;"/>
<line x1="299.800000" y1="269.000000" x2="299.800000" y2="15.000000"  style="stroke: black; stroke-linecap:round; stroke-width:0.25; stroke-dasharray:3,3;"/>
<line x1="15.000000" y1="15.000000" x2="20.000000" y2="15.000000"  style="stroke: black; stroke-linecap:round; stroke-width:0.25; stroke-dasharray:3,3;"/>
<line x1="49.025000" y1="15.000000" x2="299.800000" y2="15.000000"  style="stroke: black; stroke-linecap:round; stroke-width:0.25; stroke-dasharray:3,3;"/>
<text x="20.000000" y="17.000000" font-family="Arial" font-size="7">process</text>
<line x1="301.800000" y1="129.000000" x2="304.800000" y2="130.000000"  transform="rotate(0.000000,304.800000,130.000000)" style="stroke: black; stroke-width:0.25;"/>
<line x1="301.800000" y1="131.000000" x2="304.800000" y2="130.000000"  transform="rotate(0.000000,304.800000,130.000000)" style="stroke: black; stroke-width:0.25;"/>
<line x1="301.800000" y1="137.000000" x2="304.800000" y2="138.000000"  transform="rotate(0.000000,304.800000,138.000000)" style="stroke: black; stroke-width:0.25;"/>
<line x1="301.800000" y1="139.000000" x2="304.800000" y2="138.000000"  transform="rotate(0.000000,304.800000,138.000000)" style="stroke: black; stroke-width:0.25;"/>
<line x1="301.800000" y1="145.000000" x2="304.800000" y2="146.000000"  transform="rotate(0.000000,304.800000,146.000000)" style="stroke: black; stroke-width:0.25;"/>
<line x1="301.800000" y1="147.000000" x2="304.800000" y2="146.000000"  transform="rotate(0.000000,304.800000,146.000000)" style="stroke: black; stroke-width:0.25;"/>
<line x1="301.800000" y1="153.000000" x2="304.800000" y2="154.000000"  transform="rotate(0.000000,304.800000,154.000000)" style="stroke: black; stroke-width:0.25;"/>
<line x1="301.800000" y1="155.000000" x2="304.800000" y2="154.000000"  transform="rotate(0.000000,304.800000,154.000000)" style="stroke: black; stroke-width:0.25;"/>
<line x1="10.000000" y1="138.000000" x2="20.000000" y2="138.000000"  style="stroke:black; stroke-linecap:round; stroke-width:0.25;"/>
<line x1="10.000000" y1="146.000000" x2="20.000000" y2="146.000000"  style="stroke:black; stroke-linecap:round; stroke-width:0.25;"/>
<line x1="20.000000" y1="138.000000" x2="24.000000" y2="138.000000"  style="stroke:black; stroke-linecap:round; stroke-width:0.25;"/>
<line x1="20.000000" y1="146.000000" x2="24.000000" y2="146.000000"  style="stroke:black; stroke-linecap:round; stroke-width:0.25;"/>
<line x1="24.000000" y1="138.000000" x2="28.000000" y2="138.000000"  style="stroke:black; stroke-linecap:round; stroke-width:0.25;"/>
<line x1="24.000000" y1="146.000000" x2="28.000000" y2="146.000000"  style="stroke:black; stroke-linecap:round; stroke-width:0.25;"/>
<line x1="28.000000" y1="126.000000" x2="36.000000" y2="126.000000"  style="stroke:black; stroke-linecap:round; stroke-width:0.25;"/>
<line x1="28.000000" y1="138.000000" x2="28.000000" y2="126.000000"  style="stroke:black; stroke-linecap:round; stroke-width:0.25;"/>
<line x1="28.000000" y1="138.000000" x2="28.000000" y2="138.000000"  style="stroke:black; stroke-linecap:round; stroke-width:0.25;"/>
<line x1="28.000000" y1="146.000000" x2="36.000000" y2="146.000000"  style="stroke:black; stroke-linecap:round; stroke-width:0.25;"/>
<line x1="36.000000" y1="126.000000" x2="40.000000" y2="126.000000"  style="stroke:black; stroke-linecap:round; stroke-width:0.25;"/>
<line x1="36.000000" y1="146.000000" x2="36.000000" y2="158.000000"  style="stroke:black; stroke-linecap:round; stroke-width:0.25;"/>
<line x1="36.000000" y1="158.000000" x2="36.000000" y2="158.000000"  style="stroke:black; stroke-linecap:round; stroke-width:0.25;"/>
<line x1="36.000000" y1="158.000000" x2="40.000000" y2="158.000000"  style="stroke:black; stroke-linecap:round; stroke-width:0.25;"/>
<line x1="96.000000" y1="126.000000" x2="100.000000" y2="126.000000"  style="stroke:black; stroke-linecap:round; stroke-width:0.25;"/>
<line x1="96.000000" y1="158.000000" x2="100.000000" y2="158.000000"  style="stroke:black; stroke-linecap:round; stroke-width:0.25;"/>
<line x1="100.000000" y1="126.000000" x2="177.000000" y2="42.000000"  style="stroke:black; stroke-linecap:round; stroke-width:0.25;"/>
<line x1="100.000000" y1="126.000000" x2="177.000000" y2="74.000000"  style="stroke:black; stroke-linecap:round; stroke-width:0.25;"/>
<line x1="100.000000" y1="126.000000" x2="177.000000" y2="106.000000"  style="stroke:black; stroke-linecap:round; stroke-width:0.25;"/>
<line x1="100.000000" y1="126.000000" x2="177.000000" y2="138.000000"  style="stroke:black; stroke-linecap:round; stroke-width:0.25;"/>
<line x1="100.000000" y1="126.000000" x2="177.000000" y2="202.000000"  style="stroke:black; stroke-linecap:round; stroke-width:0.25;"/>
<line x1="100.000000" y1="126.000000" x2="177.000000" y2="234.000000"  style="stroke:black; stroke-linecap:round; stroke-width:0.25;"/>
<line x1="100.000000" y1="158.000000" x2="177.000000" y2="50.000000"  style="stroke:black; stroke-linecap:round; stroke-width:0.25;"/>
<line x1="100.000000" y1="158.000000" x2="177.000000" y2="82.000000"  style="stroke:black; stroke-linecap:round; stroke-width:0.25;"/>
<line x1="100.000000" y1="158.000000" x2="177.000000" y2="114.000000"  style="stroke:black; stroke-linecap:round; stroke-width:0.25;"/>
<line x1="100.000000" y1="158.000000" x2="177.000000" y2="146.000000"  style="stroke:black; stroke-linecap:round; stroke-width:0.25;"/>
<line x1="100.000000" y1="158.000000" x2="177.000000" y2="210.000000"  style="stroke:black; stroke-linecap:round; stroke-width:0.25;"/>
<line x1="100.000000" y1="158.000000" x2="177.000000" y2="242.000000"  style="stroke:black; stroke-linecap:round; stroke-width:0.25;"/>
<line x1="177.000000" y1="42.000000" x2="187.000000" y2="42.000000"  style="stroke:black; stroke-linecap:round; stroke-width:0.25;"/>
<line x1="177.000000" y1="50.000000" x2="187.000000" y2="50.000000"  style="stroke:black; stroke-linecap:round; stroke-width:0.25;"/>
<line x1="177.000000" y1="74.000000" x2="187.000000" y2="74.000000"  style="stroke:black; stroke-linecap:round; stroke-width:0.25;"/>
<line x1="177.000000" y1="82.000000" x2="187.000000" y2="82.000000"  style="stroke:black; stroke-linecap:round; stroke-width:0.25;"/>
<line x1="177.000000" y1="106.000000" x2="187.000000" y2="106.000000"  style="stroke:black; stroke-linecap:round; stroke-width:0.25;"/>
<line x1="177.000000" y1="114.000000" x2="187.000000" y2="114.000000"  style="stroke:black; stroke-linecap:round; stroke-width:0.25;"/>
<line x1="177.000000" y1="138.000000" x2="187.000000" y2="138.000000"  style="stroke:black; stroke-linecap:round; stroke-width:0.25;"/>
<line x1="177.000000" y1="146.000000" x2="187.000000" y2="146.000000"  style="stroke:black; stroke-linecap:round; stroke-width:0.25;"/>
<line x1="177.000000" y1="202.000000" x2="187.000000" y2="202.000000"  style="stroke:black; stroke-linecap:round; stroke-width:0.25;"/>
<line x1="177.000000" y1="210.000000" x2="187.000000" y2="210.000000"  style="stroke:black; stroke-linecap:round; stroke-width:0.25;"/>
<line x1="177.000000" y1="234.000000" x2="187.000000" y2="234.000000"  style="stroke:black; stroke-linecap:round; stroke-width:0.25;"/>
<line x1="177.000000" y1="242.000000" x2="187.000000" y2="242.000000"  style="stroke:black; stroke-linecap:round; stroke-width:0.25;"/>
<line x1="187.000000" y1="42.000000" x2="187.900000" y2="42.000000"  style="stroke:black; stroke-linecap:round; stroke-width:0.25;"/>
<line x1="187.000000" y1="50.000000" x2="187.900000" y2="50.000000"  style="stroke:black; stroke-linecap:round; stroke-width:0.25;"/>
<line x1="187.000000" y1="74.000000" x2="191.000000" y2="74.000000"  style="stroke:black; stroke-linecap:round; stroke-width:0.25;"/>
<line x1="187.000000" y1="82.000000" x2="191.000000" y2="82.000000"  style="stroke:black; stroke-linecap:round; stroke-width:0.25;"/>
<line x1="187.000000" y1="106.000000" x2="187.900000" y2="106.000000"  style="stroke:black; stroke-linecap:round; stroke-width:0.25;"/>
<line x1="187.000000" y1="114.000000" x2="187.900000" y2="114.000000"  style="stroke:black; stroke-linecap:round; stroke-width:0.25;"/>
<line x1="187.000000" y1="138.000000" x2="191.000000" y2="138.000000"  style="stroke:black; stroke-linecap:round; stroke-width:0.25;"/>
<line x1="187.000000" y1="146.000000" x2="191.000000" y2="146.000000"  style="stroke:black; stroke-linecap:round; stroke-width:0.25;"/>
<line x1="187.000000" y1="202.000000" x2="191.000000" y2="202.000000"  style="stroke:black; stroke-linecap:round; stroke-width:0.25;"/>
<line x1="187.000000" y1="210.000000" x2="191.000000" y2="210.000000"  style="stroke:black; stroke-linecap:round; stroke-width:0.25;"/>
<line x1="187.000000" y1="234.000000" x2="207.000000" y2="234.000000"  style="stroke:black; stroke-linecap:round; stroke-width:0.25;"/>
<line x1="187.000000" y1="242.000000" x2="207.000000" y2="242.000000"  style="stroke:black; stroke-linecap:round; stroke-width:0.25;"/>
<line x1="187.900000" y1="42.000000" x2="191.900000" y2="42.000000"  style="stroke:black; stroke-linecap:round; stroke-width:0.25;"/>
<line x1="187.900000" y1="50.000000" x2="191.900000" y2="50.000000"  style="stroke:black; stroke-linecap:round; stroke-width:0.25;"/>
<line x1="187.900000" y1="106.000000" x2="191.900000" y2="106.000000"  style="stroke:black; stroke-linecap:round; stroke-width:0.25;"/>
<line x1="187.900000" y1="114.000000" x2="191.900000" y2="114.000000"  style="stroke:black; stroke-linecap:round; stroke-width:0.25;"/>
<line x1="207.000000" y1="234.000000" x2="211.000000" y2="234.000000"  style="stroke:black; stroke-linecap:round; stroke-width:0.25;"/>
<line x1="207.000000" y1="242.000000" x2="211.000000" y2="242.000000"  style="stroke:black; stroke-linecap:round; stroke-width:0.25;"/>
<line x1="215.900000" y1="46.000000" x2="219.900000" y2="46.000000"  style="stroke:black; stroke-linecap:round; stroke-width:0.25;"/>
<line x1="215.900000" y1="110.000000" x2="219.900000" y2="110.000000"  style="stroke:black; stroke-linecap:round; stroke-width:0.25;"/>
<line x1="215.900000" y1="174.000000" x2="219.900000" y2="174.000000"  style="stroke:black; stroke-linecap:round; stroke-width:0.25;"/>
<line x1="216.800000" y1="78.000000" x2="220.800000" y2="78.000000"  style="stroke:black; stroke-linecap:round; stroke-width:0.25;"/>
<line x1="216.800000" y1="142.000000" x2="220.800000" y2="142.000000"  style="stroke:black; stroke-linecap:round; stroke-width:0.25;"/>
<line x1="216.800000" y1="206.000000" x2="220.800000" y2="206.000000"  style="stroke:black; stroke-linecap:round; stroke-width:0.25;"/>
<line x1="219.900000" y1="46.000000" x2="220.800000" y2="46.000000"  style="stroke:black; stroke-linecap:round; stroke-width:0.25;"/>
<line x1="219.900000" y1="110.000000" x2="220.800000" y2="110.000000"  style="stroke:black; stroke-linecap:round; stroke-width:0.25;"/>
<line x1="219.900000" y1="174.000000" x2="220.800000" y2="174.000000"  style="stroke:black; stroke-linecap:round; stroke-width:0.25;"/>
<line x1="220.800000" y1="46.000000" x2="228.800000" y2="46.000000"  style="stroke:black; stroke-linecap:round; stroke-width:0.25;"/>
<line x1="220.800000" y1="66.000000" x2="228.800000" y2="66.000000"  style="stroke:black; stroke-linecap:round; stroke-width:0.25;"/>
<line x1="220.800000" y1="78.000000" x2="220.800000" y2="66.000000"  style="stroke:black; stroke-linecap:round; stroke-width:0.25;"/>
<line x1="220.800000" y1="78.000000" x2="220.800000" y2="78.000000"  style="stroke:black; stroke-linecap:round; stroke-width:0.25;"/>
<line x1="220.800000" y1="110.000000" x2="228.800000" y2="110.000000"  style="stroke:black; stroke-linecap:round; stroke-width:0.25;"/>
<line x1="220.800000" y1="130.000000" x2="228.800000" y2="130.000000"  style="stroke:black; stroke-linecap:round; stroke-width:0.25;"/>
<line x1="220.800000" y1="142.000000" x2="220.800000" y2="130.000000"  style="stroke:black; stroke-linecap:round; stroke-width:0.25;"/>
<line x1="220.800000" y1="142.000000" x2="220.800000" y2="142.000000"  style="stroke:black; stroke-linecap:round; stroke-width:0.25;"/>
<line x1="220.800000" y1="174.000000" x2="228.800000" y2="174.000000"  style="stroke:black; stroke-linecap:round; stroke-width:0.25;"/>
<line x1="220.800000" y1="194.000000" x2="228.800000" y2="194.000000"  style="stroke:black; stroke-linecap:round; stroke-width:0.25;"/>
<line x1="220.800000" y1="206.000000" x2="220.800000" y2="194.000000"  style="stroke:black; stroke-linecap:round; stroke-width:0.25;"/>
<line x1="220.800000" y1="206.000000" x2="220.800000" y2="206.000000"  style="stroke:black; stroke-linecap:round; stroke-width:0.25;"/>
<line x1="228.800000" y1="46.000000" x2="228.800000" y2="58.000000"  style="stroke:black; stroke-linecap:round; stroke-width:0.25;"/>
<line x1="228.800000" y1="58.000000" x2="228.800000" y2="58.000000"  style="stroke:black; stroke-linecap:round; stroke-width:0.25;"/>
<line x1="228.800000" y1="58.000000" x2="232.800000" y2="58.000000"  style="stroke:black; stroke-linecap:round; stroke-width:0.25;"/>
<line x1="228.800000" y1="66.000000" x2="232.800000" y2="66.000000"  style="stroke:black; stroke-linecap:round; stroke-width:0.25;"/>
<line x1="228.800000" y1="110.000000" x2="228.800000" y2="122.000000"  style="stroke:black; stroke-linecap:round; stroke-width:0.25;"/>
<line x1="228.800000" y1="122.000000" x2="228.800000" y2="122.000000"  style="stroke:black; stroke-linecap:round; stroke-width:0.25;"/>
<line x1="228.800000" y1="122.000000" x2="232.800000" y2="122.000000"  style="stroke:black; stroke-linecap:round; stroke-width:0.25;"/>
<line x1="228.800000" y1="130.000000" x2="232.800000" y2="130.000000"  style="stroke:black; stroke-linecap:round; stroke-width:0.25;"/>
<line x1="228.800000" y1="174.000000" x2="228.800000" y2="186.000000"  style="stroke:black; stroke-linecap:round; stroke-width:0.25;"/>
<line x1="228.800000" y1="186.000000" x2="228.800000" y2="186.000000"  style="stroke:black; stroke-linecap:round; stroke-width:0.25;"/>
<line x1="228.800000" y1="186.000000" x2="232.800000" y2="186.000000"  style="stroke:black; stroke-linecap:round; stroke-width:0.25;"/>
<line x1="228.800000" y1="194.000000" x2="232.800000" y2="194.000000"  style="stroke:black; stroke-linecap:round; stroke-width:0.25;"/>
<line x1="236.800000" y1="238.000000" x2="240.800000" y2="238.000000"  style="stroke:black; stroke-linecap:round; stroke-width:0.25;"/>
<line x1="240.800000" y1="238.000000" x2="260.800000" y2="238.000000"  style="stroke:black; stroke-linecap:round; stroke-width:0.25;"/>
<line x1="256.800000" y1="62.000000" x2="260.800000" y2="62.000000"  style="stroke:black; stroke-linecap:round; stroke-width:0.25;"/>
<line x1="256.800000" y1="126.000000" x2="260.800000" y2="126.000000"  style="stroke:black; stroke-linecap:round; stroke-width:0.25;"/>
<line x1="256.800000" y1="190.000000" x2="260.800000" y2="190.000000"  style="stroke:black; stroke-linecap:round; stroke-width:0.25;"/>
<line x1="260.800000" y1="62.000000" x2="270.800000" y2="62.000000"  style="stroke:black; stroke-linecap:round; stroke-width:0.25;"/>
<line x1="260.800000" y1="126.000000" x2="270.800000" y2="126.000000"  style="stroke:black; stroke-linecap:round; stroke-width:0.25;"/>
<line x1="260.800000" y1="190.000000" x2="270.800000" y2="190.000000"  style="stroke:black; stroke-linecap:round; stroke-width:0.25;"/>
<line x1="260.800000" y1="238.000000" x2="270.800000" y2="238.000000"  style="stroke:black; stroke-linecap:round; stroke-width:0.25;"/>
<line x1="270.800000" y1="62.000000" x2="286.800000" y2="62.000000"  style="stroke:black; stroke-linecap:round; stroke-width:0.25;"/>
<line x1="270.800000" y1="126.000000" x2="278.800000" y2="126.000000"  style="stroke:black; stroke-linecap:round; stroke-width:0.25;"/>
<line x1="270.800000" y1="146.000000" x2="286.800000" y2="146.000000"  style="stroke:black; stroke-linecap:round; stroke-width:0.25;"/>
<line x1="270.800000" y1="190.000000" x2="270.800000" y2="146.000000"  style="stroke:black; stroke-linecap:round; stroke-width:0.25;"/>
<line x1="270.800000" y1="190.000000" x2="270.800000" y2="190.000000"  style="stroke:black; stroke-linecap:round; stroke-width:0.25;"/>
<line x1="270.800000" y1="238.000000" x2="278.800000" y2="238.000000"  style="stroke:black; stroke-linecap:round; stroke-width:0.25;"/>
<line x1="278.800000" y1="126.000000" x2="278.800000" y2="138.000000"  style="stroke:black; stroke-linecap:round; stroke-width:0.25;"/>
<line x1="278.800000" y1="138.000000" x2="286.800000" y2="138.000000"  style="stroke:black; stroke-linecap:round; stroke-width:0.25;"/>
<line x1="278.800000" y1="154.000000" x2="286.800000" y2="154.000000"  style="stroke:black; stroke-linecap:round; stroke-width:0.25;"/>
<line x1="278.800000" y1="238.000000" x2="278.800000" y2="154.000000"  style="stroke:black; stroke-linecap:round; stroke-width:0.25;"/>
<line x1="286.800000" y1="62.000000" x2="286.800000" y2="130.000000"  style="stroke:black; stroke-linecap:round; stroke-width:0.25;"/>
<line x1="286.800000" y1="130.000000" x2="286.800000" y2="130.000000"  style="stroke:black; stroke-linecap:round; stroke-width:0.25;"/>
<line x1="286.800000" y1="130.000000" x2="290.800000" y2="130.000000"  style="stroke:black; stroke-linecap:round; stroke-width:0.25;"/>
<line x1="286.800000" y1="138.000000" x2="290.800000" y2="138.000000"  style="stroke:black; stroke-linecap:round; stroke-width:0.25;"/>
<line x1="286.800000" y1="146.000000" x2="290.800000" y2="146.000000"  style="stroke:black; stroke-linecap:round; stroke-width:0.25;"/>
<line x1="286.800000" y1="154.000000" x2="290.800000" y2="154.000000"  style="stroke:black; stroke-linecap:round; stroke-width:0.25;"/>
<line x1="290.800000" y1="130.000000" x2="294.800000" y2="130.000000"  style="stroke:black; stroke-linecap:round; stroke-width:0.25;"/>
<line x1="290.800000" y1="138.000000" x2="294.800000" y2="138.000000"  style="stroke:black; stroke-linecap:round; stroke-width:0.25;"/>
<line x1="290.800000" y1="146.000000" x2="294.800000" y2="146.000000"  style="stroke:black; stroke-linecap:round; stroke-width:0.25;"/>
<line x1="290.800000" y1="154.000000" x2="294.800000" y2="154.000000"  style="stroke:black; stroke-linecap:round; stroke-width:0.25;"/>
<line x1="294.800000" y1="130.000000" x2="304.800000" y2="130.000000"  style="stroke:black; stroke-linecap:round; stroke-width:0.25;"/>
<line x1="294.800000" y1="138.000000" x2="304.800000" y2="138.000000"  style="stroke:black; stroke-linecap:round; stroke-width:0.25;"/>
<line x1="294.800000" y1="146.000000" x2="304.800000" y2="146.000000"  style="stroke:black; stroke-linecap:round; stroke-width:0.25;"/>
<line x1="294.800000" y1="154.000000" x2="304.800000" y2="154.000000"  style="stroke:black; stroke-linecap:round; stroke-width:0.25;"/>
</svg>
