<?xml version="1.0"?>
<svg xmlns="http://www.w3.org/2000/svg" xmlns:xlink="http://www.w3.org/1999/xlink" viewBox="0 0 348.600000 252.000000" width="174.300000mm" height="126.000000mm" version="1.1">
<rect x="1.000000" y="1.000000" width="347.600000" height="251.000000" rx="0" ry="0" style="stroke:none;fill:#cccccc;"/>
<rect x="0.000000" y="0.000000" width="347.600000" height="251.000000" rx="0" ry="0" style="stroke:none;fill:#ffffff;"/>
<text x="10.000000" y="7.000000" font-family="Arial" font-size="7"></text>
<rect x="41.000000" y="99.000000" width="24.000000" height="24.000000" rx="0" ry="0" style="stroke:none;fill:#cccccc;"/>
<rect x="40.000000" y="98.000000" width="24.000000" height="24.000000" rx="0" ry="0" style="stroke:none;fill:#47945E;"/>
<text x="52.000000" y="112.000000" font-family="Arial" font-size="7" text-anchor="middle" fill="#FFFFFF">L</text>
<circle cx="42.000000" cy="100.000000" r="1"/>
<line x1="37.000000" y1="109.000000" x2="40.000000" y2="110.000000"  transform="rotate(0.000000,40.000000,110.000000)" style="stroke: black; stroke-width:0.25;"/>
<line x1="37.000000" y1="111.000000" x2="40.000000" y2="110.000000"  transform="rotate(0.000000,40.000000,110.000000)" style="stroke: black; stroke-width:0.25;"/>
<rect x="41.000000" y="131.000000" width="24.000000" height="24.000000" rx="0" ry="0" style="stroke:none;fill:#cccccc;"/>
<rect x="40.000000" y="130.000000" width="24.000000" height="24.000000" rx="0" ry="0" style="stroke:none;fill:#47945E;"/>
<text x="52.000000" y="144.000000" font-family="Arial" font-size="7" text-anchor="middle" fill="#FFFFFF">R</text>
<circle cx="42.000000" cy="132.000000" r="1"/>
<line x1="37.000000" y1="141.000000" x2="40.000000" y2="142.000000"  transform="rotate(0.000000,40.000000,142.000000)" style="stroke: black; stroke-width:0.25;"/>
<line x1="37.000000" y1="143.000000" x2="40.000000" y2="142.000000"  transform="rotate(0.000000,40.000000,142.000000)" style="stroke: black; stroke-width:0.25;"/>
<rect x="73.000000" y="99.000000" width="24.000000" height="24.000000" rx="0" ry="0" style="stroke:none;fill:#cccccc;"/>
<rect x="72.000000" y="98.000000" width="24.000000" height="24.000000" rx="0" ry="0" style="stroke:none;fill:#47945E;"/>
<text x="84.000000" y="112.000000" font-family="Arial" font-size="7" text-anchor="middle" fill="#FFFFFF">L</text>
<circle cx="74.000000" cy="100.000000" r="1"/>
<rect x="73.000000" y="131.000000" width="24.000000" height="24.000000" rx="0" ry="0" style="stroke:none;fill:#cccccc;"/>
<rect x="72.000000" y="130.000000" width="24.000000" height="24.000000" rx="0" ry="0" style="stroke:none;fill:#47945E;"/>
<text x="84.000000" y="144.000000" font-family="Arial" font-size="7" text-anchor="middle" fill="#FFFFFF">R</text>
<circle cx="74.000000" cy="132.000000" r="1"/>
<a xlink:href="mid-0x7fa24c70d960.svg">
<rect x="184.900000" y="35.000000" width="24.000000" height="24.000000" rx="0" ry="0" style="stroke:none;fill:#cccccc;"/>
<rect x="183.900000" y="34.000000" width="24.000000" height="24.000000" rx="0" ry="0" style="stroke:none;fill:#003366;"/>
</a>
<a xlink:href="mid-0x7fa24c70d960.svg">
<text x="195.900000" y="48.000000" font-family="Arial" font-size="7" text-anchor="middle" fill="#FFFFFF">mid</text>
</a>
<circle cx="185.900000" cy="36.000000" r="1"/>
<line x1="180.900000" y1="41.000000" x2="183.900000" y2="42.000000"  transform="rotate(0.000000,183.900000,42.000000)" style="stroke: black; stroke-width:0.25;"/>
<line x1="180.900000" y1="43.000000" x2="183.900000" y2="42.000000"  transform="rotate(0.000000,183.900000,42.000000)" style="stroke: black; stroke-width:0.25;"/>
<line x1="180.900000" y1="49.000000" x2="183.900000" y2="50.000000"  transform="rotate(0.000000,183.900000,50.000000)" style="stroke: black; stroke-width:0.25;"/>
<line x1="180.900000" y1="51.000000" x2="183.900000" y2="50.000000"  transform="rotate(0.000000,183.900000,50.000000)" style="stroke: black; stroke-width:0.25;"/>
<a xlink:href="side-0x7fa24c70ddd0.svg">
<rect x="184.000000" y="67.000000" width="25.800000" height="24.000000" rx="0" ry="0" style="stroke:none;fill:#cccccc;"/>
<rect x="183.000000" y="66.000000" width="25.800000" height="24.000000" rx="0" ry="0" style="stroke:none;fill:#003366;"/>
</a>
<a xlink:href="side-0x7fa24c70ddd0.svg">
<text x="195.900000" y="80.000000" font-family="Arial" font-size="7" text-anchor="middle" fill="#FFFFFF">side</text>
</a>
<circle cx="185.000000" cy="68.000000" r="1"/>
<line x1="180.000000" y1="73.000000" x2="183.000000" y2="74.000000"  transform="rotate(0.000000,183.000000,74.000000)" style="stroke: black; stroke-width:0.25;"/>
<line x1="180.000000" y1="75.000000" x2="183.000000" y2="74.000000"  transform="rotate(0.000000,183.000000,74.000000)" style="stroke: black; stroke-width:0.25;"/>
<line x1="180.000000" y1="81.000000" x2="183.000000" y2="82.000000"  transform="rotate(0.000000,183.000000,82.000000)" style="stroke: black; stroke-width:0.25;"/>
<line x1="180.000000" y1="83.000000" x2="183.000000" y2="82.000000"  transform="rotate(0.000000,183.000000,82.000000)" style="stroke: black; stroke-width:0.25;"/>
<rect x="225.800000" y="51.000000" width="24.000000" height="24.000000" rx="0" ry="0" style="stroke:none;fill:#cccccc;"/>
<rect x="224.800000" y="50.000000" width="24.000000" height="24.000000" rx="0" ry="0" style="stroke:none;fill:#4B71A1;"/>
<text x="236.800000" y="64.000000" font-family="Arial" font-size="7" text-anchor="middle" fill="#FFFFFF">+</text>
<circle cx="226.800000" cy="52.000000" r="1"/>
<line x1="221.800000" y1="57.000000" x2="224.800000" y2="58.000000"  transform="rotate(0.000000,224.800000,58.000000)" style="stroke: black; stroke-width:0.25;"/>
<line x1="221.800000" y1="59.000000" x2="224.800000" y2="58.000000"  transform="rotate(0.000000,224.800000,58.000000)" style="stroke: black; stroke-width:0.25;"/>
<line x1="221.800000" y1="65.000000" x2="224.800000" y2="66.000000"  transform="rotate(0.000000,224.800000,66.000000)" style="stroke: black; stroke-width:0.25;"/>
<line x1="221.800000" y1="67.000000" x2="224.800000" y2="66.000000"  transform="rotate(0.000000,224.800000,66.000000)" style="stroke: black; stroke-width:0.25;"/>
<a xlink:href="vmeter-0x7fa24c70d800.svg">
<rect x="257.800000" y="51.000000" width="25.800000" height="24.000000" rx="0" ry="0" style="stroke:none;fill:#cccccc;"/>
<rect x="256.800000" y="50.000000" width="25.800000" height="24.000000" rx="0" ry="0" style="stroke:none;fill:#003366;"/>
</a>
<a xlink:href="vmeter-0x7fa24c70d800.svg">
<text x="269.700000" y="64.000000" font-family="Arial" font-size="7" text-anchor="middle" fill="#FFFFFF">vmeter</text>
</a>
<circle cx="258.800000" cy="52.000000" r="1"/>
<line x1="253.800000" y1="61.000000" x2="256.800000" y2="62.000000"  transform="rotate(0.000000,256.800000,62.000000)" style="stroke: black; stroke-width:0.25;"/>
<line x1="253.800000" y1="63.000000" x2="256.800000" y2="62.000000"  transform="rotate(0.000000,256.800000,62.000000)" style="stroke: black; stroke-width:0.25;"/>
<a xlink:href="mid-0x7fa24c70d960.svg">
<rect x="184.900000" y="99.000000" width="24.000000" height="24.000000" rx="0" ry="0" style="stroke:none;fill:#cccccc;"/>
<rect x="183.900000" y="98.000000" width="24.000000" height="24.000000" rx="0" ry="0" style="stroke:none;fill:#003366;"/>
</a>
<a xlink:href="mid-0x7fa24c70d960.svg">
<text x="195.900000" y="112.000000" font-family="Arial" font-size="7" text-anchor="middle" fill="#FFFFFF">mid</text>
</a>
<circle cx="185.900000" cy="100.000000" r="1"/>
<line x1="180.900000" y1="105.000000" x2="183.900000" y2="106.000000"  transform="rotate(0.000000,183.900000,106.000000)" style="stroke: black; stroke-width:0.25;"/>
<line x1="180.900000" y1="107.000000" x2="183.900000" y2="106.000000"  transform="rotate(0.000000,183.900000,106.000000)" style="stroke: black; stroke-width:0.25;"/>
<line x1="180.900000" y1="113.000000" x2="183.900000" y2="114.000000"  transform="rotate(0.000000,183.900000,114.000000)" style="stroke: black; stroke-width:0.25;"/>
<line x1="180.900000" y1="115.000000" x2="183.900000" y2="114.000000"  transform="rotate(0.000000,183.900000,114.000000)" style="stroke: black; stroke-width:0.25;"/>
<a xlink:href="side-0x7fa24c70ddd0.svg">
<rect x="184.000000" y="131.000000" width="25.800000" height="24.000000" rx="0" ry="0" style="stroke:none;fill:#cccccc;"/>
<rect x="183.000000" y="130.000000" width="25.800000" height="24.000000" rx="0" ry="0" style="stroke:none;fill:#003366;"/>
</a>
<a xlink:href="side-0x7fa24c70ddd0.svg">
<text x="195.900000" y="144.000000" font-family="Arial" font-size="7" text-anchor="middle" fill="#FFFFFF">side</text>
</a>
<circle cx="185.000000" cy="132.000000" r="1"/>
<line x1="180.000000" y1="137.000000" x2="183.000000" y2="138.000000"  transform="rotate(0.000000,183.000000,138.000000)" style="stroke: black; stroke-width:0.25;"/>
<line x1="180.000000" y1="139.000000" x2="183.000000" y2="138.000000"  transform="rotate(0.000000,183.000000,138.000000)" style="stroke: black; stroke-width:0.25;"/>
<line x1="180.000000" y1="145.000000" x2="183.000000" y2="146.000000"  transform="rotate(0.000000,183.000000,146.000000)" style="stroke: black; stroke-width:0.25;"/>
<line x1="180.000000" y1="147.000000" x2="183.000000" y2="146.000000"  transform="rotate(0.000000,183.000000,146.000000)" style="stroke: black; stroke-width:0.25;"/>
<rect x="225.800000" y="115.000000" width="24.000000" height="24.000000" rx="0" ry="0" style="stroke:none;fill:#cccccc;"/>
<rect x="224.800000" y="114.000000" width="24.000000" height="24.000000" rx="0" ry="0" style="stroke:none;fill:#4B71A1;"/>
<text x="236.800000" y="128.000000" font-family="Arial" font-size="7" text-anchor="middle" fill="#FFFFFF">-</text>
<circle cx="226.800000" cy="116.000000" r="1"/>
<line x1="221.800000" y1="121.000000" x2="224.800000" y2="122.000000"  transform="rotate(0.000000,224.800000,122.000000)" style="stroke: black; stroke-width:0.25;"/>
<line x1="221.800000" y1="123.000000" x2="224.800000" y2="122.000000"  transform="rotate(0.000000,224.800000,122.000000)" style="stroke: black; stroke-width:0.25;"/>
<line x1="221.800000" y1="129.000000" x2="224.800000" y2="130.000000"  transform="rotate(0.000000,224.800000,130.000000)" style="stroke: black; stroke-width:0.25;"/>
<line x1="221.800000" y1="131.000000" x2="224.800000" y2="130.000000"  transform="rotate(0.000000,224.800000,130.000000)" style="stroke: black; stroke-width:0.25;"/>
<a xlink:href="vmeter-0x7fa24c70d800.svg">
<rect x="257.800000" y="115.000000" width="25.800000" height="24.000000" rx="0" ry="0" style="stroke:none;fill:#cccccc;"/>
<rect x="256.800000" y="114.000000" width="25.800000" height="24.000000" rx="0" ry="0" style="stroke:none;fill:#003366;"/>
</a>
<a xlink:href="vmeter-0x7fa24c70d800.svg">
<text x="269.700000" y="128.000000" font-family="Arial" font-size="7" text-anchor="middle" fill="#FFFFFF">vmeter</text>
</a>
<circle cx="258.800000" cy="116.000000" r="1"/>
<line x1="253.800000" y1="125.000000" x2="256.800000" y2="126.000000"  transform="rotate(0.000000,256.800000,126.000000)" style="stroke: black; stroke-width:0.25;"/>
<line x1="253.800000" y1="127.000000" x2="256.800000" y2="126.000000"  transform="rotate(0.000000,256.800000,126.000000)" style="stroke: black; stroke-width:0.25;"/>
<a xlink:href="side-0x7fa24c70ddd0.svg">
<rect x="204.000000" y="163.000000" width="25.800000" height="24.000000" rx="0" ry="0" style="stroke:none;fill:#cccccc;"/>
<rect x="203.000000" y="162.000000" width="25.800000" height="24.000000" rx="0" ry="0" style="stroke:none;fill:#003366;"/>
</a>
<a xlink:href="side-0x7fa24c70ddd0.svg">
<text x="215.900000" y="176.000000" font-family="Arial" font-size="7" text-anchor="middle" fill="#FFFFFF">side</text>
</a>
<circle cx="205.000000" cy="164.000000" r="1"/>
<line x1="200.000000" y1="169.000000" x2="203.000000" y2="170.000000"  transform="rotate(0.000000,203.000000,170.000000)" style="stroke: black; stroke-width:0.25;"/>
<line x1="200.000000" y1="171.000000" x2="203.000000" y2="170.000000"  transform="rotate(0.000000,203.000000,170.000000)" style="stroke: black; stroke-width:0.25;"/>
<line x1="200.000000" y1="177.000000" x2="203.000000" y2="178.000000"  transform="rotate(0.000000,203.000000,178.000000)" style="stroke: black; stroke-width:0.25;"/>
<line x1="200.000000" y1="179.000000" x2="203.000000" y2="178.000000"  transform="rotate(0.000000,203.000000,178.000000)" style="stroke: black; stroke-width:0.25;"/>
<a xlink:href="vmeter-0x7fa24c70d800.svg">
<rect x="237.800000" y="163.000000" width="25.800000" height="24.000000" rx="0" ry="0" style="stroke:none;fill:#cccccc;"/>
<rect x="236.800000" y="162.000000" width="25.800000" height="24.000000" rx="0" ry="0" style="stroke:none;fill:#003366;"/>
</a>
<a xlink:href="vmeter-0x7fa24c70d800.svg">
<text x="249.700000" y="176.000000" font-family="Arial" font-size="7" text-anchor="middle" fill="#FFFFFF">vmeter</text>
</a>
<circle cx="238.800000" cy="164.000000" r="1"/>
<line x1="233.800000" y1="173.000000" x2="236.800000" y2="174.000000"  transform="rotate(0.000000,236.800000,174.000000)" style="stroke: black; stroke-width:0.25;"/>
<line x1="233.800000" y1="175.000000" x2="236.800000" y2="174.000000"  transform="rotate(0.000000,236.800000,174.000000)" style="stroke: black; stroke-width:0.25;"/>
<a xlink:href="side-0x7fa24c70ddd0.svg">
<rect x="188.000000" y="195.000000" width="25.800000" height="24.000000" rx="0" ry="0" style="stroke:none;fill:#cccccc;"/>
<rect x="187.000000" y="194.000000" width="25.800000" height="24.000000" rx="0" ry="0" style="stroke:none;fill:#003366;"/>
</a>
<a xlink:href="side-0x7fa24c70ddd0.svg">
<text x="199.900000" y="208.000000" font-family="Arial" font-size="7" text-anchor="middle" fill="#FFFFFF">side</text>
</a>
<circle cx="189.000000" cy="196.000000" r="1"/>
<line x1="184.000000" y1="201.000000" x2="187.000000" y2="202.000000"  transform="rotate(0.000000,187.000000,202.000000)" style="stroke: black; stroke-width:0.25;"/>
<line x1="184.000000" y1="203.000000" x2="187.000000" y2="202.000000"  transform="rotate(0.000000,187.000000,202.000000)" style="stroke: black; stroke-width:0.25;"/>
<line x1="184.000000" y1="209.000000" x2="187.000000" y2="210.000000"  transform="rotate(0.000000,187.000000,210.000000)" style="stroke: black; stroke-width:0.25;"/>
<line x1="184.000000" y1="211.000000" x2="187.000000" y2="210.000000"  transform="rotate(0.000000,187.000000,210.000000)" style="stroke: black; stroke-width:0.25;"/>
<a xlink:href="neg-0x7fa24c70eaa0.svg">
<rect x="221.800000" y="195.000000" width="24.000000" height="24.000000" rx="0" ry="0" style="stroke:none;fill:#cccccc;"/>
<rect x="220.800000" y="194.000000" width="24.000000" height="24.000000" rx="0" ry="0" style="stroke:none;fill:#003366;"/>
</a>
<a xlink:href="neg-0x7fa24c70eaa0.svg">
<text x="232.800000" y="208.000000" font-family="Arial" font-size="7" text-anchor="middle" fill="#FFFFFF">neg</text>
</a>
<circle cx="222.800000" cy="196.000000" r="1"/>
<line x1="217.800000" y1="205.000000" x2="220.800000" y2="206.000000"  transform="rotate(0.000000,220.800000,206.000000)" style="stroke: black; stroke-width:0.25;"/>
<line x1="217.800000" y1="207.000000" x2="220.800000" y2="206.000000"  transform="rotate(0.000000,220.800000,206.000000)" style="stroke: black; stroke-width:0.25;"/>
<a xlink:href="vmeter-0x7fa24c70d800.svg">
<rect x="253.800000" y="195.000000" width="25.800000" height="24.000000" rx="0" ry="0" style="stroke:none;fill:#cccccc;"/>
<rect x="252.800000" y="194.000000" width="25.800000" height="24.000000" rx="0" ry="0" style="stroke:none;fill:#003366;"/>
</a>
<a xlink:href="vmeter-0x7fa24c70d800.svg">
<text x="265.700000" y="208.000000" font-family="Arial" font-size="7" text-anchor="middle" fill="#FFFFFF">vmeter</text>
</a>
<circle cx="254.800000" cy="196.000000" r="1"/>
<line x1="249.800000" y1="205.000000" x2="252.800000" y2="206.000000"  transform="rotate(0.000000,252.800000,206.000000)" style="stroke: black; stroke-width:0.25;"/>
<line x1="249.800000" y1="207.000000" x2="252.800000" y2="206.000000"  transform="rotate(0.000000,252.800000,206.000000)" style="stroke: black; stroke-width:0.25;"/>
<line x1="174.000000" y1="25.000000" x2="174.000000" y2="227.000000"  style="stroke: black; stroke-linecap:round; stroke-width:0.25; stroke-dasharray:3,3;"/>
<line x1="174.000000" y1="227.000000" x2="291.600000" y2="227.000000"  style="stroke: black; stroke-linecap:round; stroke-width:0.25; stroke-dasharray:3,3;"/>
<line x1="291.600000" y1="227.000000" x2="291.600000" y2="25.000000"  style="stroke: black; stroke-linecap:round; stroke-width:0.25; stroke-dasharray:3,3;"/>
<line x1="174.000000" y1="25.000000" x2="179.000000" y2="25.000000"  style="stroke: black; stroke-linecap:round; stroke-width:0.25; stroke-dasharray:3,3;"/>
<line x1="233.825000" y1="25.000000" x2="291.600000" y2="25.000000"  style="stroke: black; stroke-linecap:round; stroke-width:0.25; stroke-dasharray:3,3;"/>
<text x="179.000000" y="27.000000" font-family="Arial" font-size="7">hgroup(S.T.ONE)</text>
<line x1="15.000000" y1="15.000000" x2="15.000000" y2="237.000000"  style="stroke: black; stroke-linecap:round; stroke-width:0.25; stroke-dasharray:3,3;"/>
<line x1="15.000000" y1="237.000000" x2="333.600000" y2="237.000000"  style="stroke: black; stroke-linecap:round; stroke-width:0.25; stroke-dasharray:3,3;"/>
<line x1="333.600000" y1="237.000000" x2="333.600000" y2="15.000000"  style="stroke: black; stroke-linecap:round; stroke-width:0.25; stroke-dasharray:3,3;"/>
<line x1="15.000000" y1="15.000000" x2="20.000000" y2="15.000000"  style="stroke: black; stroke-linecap:round; stroke-width:0.25; stroke-dasharray:3,3;"/>
<line x1="49.025000" y1="15.000000" x2="333.600000" y2="15.000000"  style="stroke: black; stroke-linecap:round; stroke-width:0.25; stroke-dasharray:3,3;"/>
<text x="20.000000" y="17.000000" font-family="Arial" font-size="7">process</text>
<line x1="335.600000" y1="113.000000" x2="338.600000" y2="114.000000"  transform="rotate(0.000000,338.600000,114.000000)" style="stroke: black; stroke-width:0.25;"/>
<line x1="335.600000" y1="115.000000" x2="338.600000" y2="114.000000"  transform="rotate(0.000000,338.600000,114.000000)" style="stroke: black; stroke-width:0.25;"/>
<line x1="335.600000" y1="121.000000" x2="338.600000" y2="122.000000"  transform="rotate(0.000000,338.600000,122.000000)" style="stroke: black; stroke-width:0.25;"/>
<line x1="335.600000" y1="123.000000" x2="338.600000" y2="122.000000"  transform="rotate(0.000000,338.600000,122.000000)" style="stroke: black; stroke-width:0.25;"/>
<line x1="335.600000" y1="129.000000" x2="338.600000" y2="130.000000"  transform="rotate(0.000000,338.600000,130.000000)" style="stroke: black; stroke-width:0.25;"/>
<line x1="335.600000" y1="131.000000" x2="338.600000" y2="130.000000"  transform="rotate(0.000000,338.600000,130.000000)" style="stroke: black; stroke-width:0.25;"/>
<line x1="335.600000" y1="137.000000" x2="338.600000" y2="138.000000"  transform="rotate(0.000000,338.600000,138.000000)" style="stroke: black; stroke-width:0.25;"/>
<line x1="335.600000" y1="139.000000" x2="338.600000" y2="138.000000"  transform="rotate(0.000000,338.600000,138.000000)" style="stroke: black; stroke-width:0.25;"/>
<line x1="10.000000" y1="122.000000" x2="20.000000" y2="122.000000"  style="stroke:black; stroke-linecap:round; stroke-width:0.25;"/>
<line x1="10.000000" y1="130.000000" x2="20.000000" y2="130.000000"  style="stroke:black; stroke-linecap:round; stroke-width:0.25;"/>
<line x1="20.000000" y1="122.000000" x2="24.000000" y2="122.000000"  style="stroke:black; stroke-linecap:round; stroke-width:0.25;"/>
<line x1="20.000000" y1="130.000000" x2="24.000000" y2="130.000000"  style="stroke:black; stroke-linecap:round; stroke-width:0.25;"/>
<line x1="24.000000" y1="122.000000" x2="28.000000" y2="122.000000"  style="stroke:black; stroke-linecap:round; stroke-width:0.25;"/>
<line x1="24.000000" y1="130.000000" x2="28.000000" y2="130.000000"  style="stroke:black; stroke-linecap:round; stroke-width:0.25;"/>
<line x1="28.000000" y1="110.000000" x2="36.000000" y2="110.000000"  style="stroke:black; stroke-linecap:round; stroke-width:0.25;"/>
<line x1="28.000000" y1="122.000000" x2="28.000000" y2="110.000000"  style="stroke:black; stroke-linecap:round; stroke-width:0.25;"/>
<line x1="28.000000" y1="122.000000" x2="28.000000" y2="122.000000"  style="stroke:black; stroke-linecap:round; stroke-width:0.25;"/>
<line x1="28.000000" y1="130.000000" x2="36.000000" y2="130.000000"  style="stroke:black; stroke-linecap:round; stroke-width:0.25;"/>
<line x1="36.000000" y1="110.000000" x2="40.000000" y2="110.000000"  style="stroke:black; stroke-linecap:round; stroke-width:0.25;"/>
<line x1="36.000000" y1="130.000000" x2="36.000000" y2="142.000000"  style="stroke:black; stroke-linecap:round; stroke-width:0.25;"/>
<line x1="36.000000" y1="142.000000" x2="36.000000" y2="142.000000"  style="stroke:black; stroke-linecap:round; stroke-width:0.25;"/>
<line x1="36.000000" y1="142.000000" x2="40.000000" y2="142.000000"  style="stroke:black; stroke-linecap:round; stroke-width:0.25;"/>
<line x1="96.000000" y1="110.000000" x2="100.000000" y2="110.000000"  style="stroke:black; stroke-linecap:round; stroke-width:0.25;"/>
<line x1="96.000000" y1="142.000000" x2="100.000000" y2="142.000000"  style="stroke:black; stroke-linecap:round; stroke-width:0.25;"/>
<line x1="100.000000" y1="110.000000" x2="169.000000" y2="42.000000"  style="stroke:black; stroke-linecap:round; stroke-width:0.25;"/>
<line x1="100.000000" y1="110.000000" x2="169.000000" y2="74.000000"  style="stroke:black; stroke-linecap:round; stroke-width:0.25;"/>
<line x1="100.000000" y1="110.000000" x2="169.000000" y2="106.000000"  style="stroke:black; stroke-linecap:round; stroke-width:0.25;"/>
<line x1="100.000000" y1="110.000000" x2="169.000000" y2="138.000000"  style="stroke:black; stroke-linecap:round; stroke-width:0.25;"/>
<line x1="100.000000" y1="110.000000" x2="169.000000" y2="170.000000"  style="stroke:black; stroke-linecap:round; stroke-width:0.25;"/>
<line x1="100.000000" y1="110.000000" x2="169.000000" y2="202.000000"  style="stroke:black; stroke-linecap:round; stroke-width:0.25;"/>
<line x1="100.000000" y1="142.000000" x2="169.000000" y2="50.000000"  style="stroke:black; stroke-linecap:round; stroke-width:0.25;"/>
<line x1="100.000000" y1="142.000000" x2="169.000000" y2="82.000000"  style="stroke:black; stroke-linecap:round; stroke-width:0.25;"/>
<line x1="100.000000" y1="142.000000" x2="169.000000" y2="114.000000"  style="stroke:black; stroke-linecap:round; stroke-width:0.25;"/>
<line x1="100.000000" y1="142.000000" x2="169.000000" y2="146.000000"  style="stroke:black; stroke-linecap:round; stroke-width:0.25;"/>
<line x1="100.000000" y1="142.000000" x2="169.000000" y2="178.000000"  style="stroke:black; stroke-linecap:round; stroke-width:0.25;"/>
<line x1="100.000000" y1="142.000000" x2="169.000000" y2="210.000000"  style="stroke:black; stroke-linecap:round; stroke-width:0.25;"/>
<line x1="169.000000" y1="42.000000" x2="179.000000" y2="42.000000"  style="stroke:black; stroke-linecap:round; stroke-width:0.25;"/>
<line x1="169.000000" y1="50.000000" x2="179.000000" y2="50.000000"  style="stroke:black; stroke-linecap:round; stroke-width:0.25;"/>
<line x1="169.000000" y1="74.000000" x2="179.000000" y2="74.000000"  style="stroke:black; stroke-linecap:round; stroke-width:0.25;"/>
<line x1="169.000000" y1="82.000000" x2="179.000000" y2="82.000000"  style="stroke:black; stroke-linecap:round; stroke-width:0.25;"/>
<line x1="169.000000" y1="106.000000" x2="179.000000" y2="106.000000"  style="stroke:black; stroke-linecap:round; stroke-width:0.25;"/>
<line x1="169.000000" y1="114.000000" x2="179.000000" y2="114.000000"  style="stroke:black; stroke-linecap:round; stroke-width:0.25;"/>
<line x1="169.000000" y1="138.000000" x2="179.000000" y2="138.000000"  style="stroke:black; stroke-linecap:round; stroke-width:0.25;"/>
<line x1="169.000000" y1="146.000000" x2="179.000000" y2="146.000000"  style="stroke:black; stroke-linecap:round; stroke-width:0.25;"/>
<line x1="169.000000" y1="170.000000" x2="179.000000" y2="170.000000"  style="stroke:black; stroke-linecap:round; stroke-width:0.25;"/>
<line x1="169.000000" y1="178.000000" x2="179.000000" y2="178.000000"  style="stroke:black; stroke-linecap:round; stroke-width:0.25;"/>
<line x1="169.000000" y1="202.000000" x2="179.000000" y2="202.000000"  style="stroke:black; stroke-linecap:round; stroke-width:0.25;"/>
<line x1="169.000000" y1="210.000000" x2="179.000000" y2="210.000000"  style="stroke:black; stroke-linecap:round; stroke-width:0.25;"/>
<line x1="179.000000" y1="42.000000" x2="179.900000" y2="42.000000"  style="stroke:black; stroke-linecap:round; stroke-width:0.25;"/>
<line x1="179.000000" y1="50.000000" x2="179.900000" y2="50.000000"  style="stroke:black; stroke-linecap:round; stroke-width:0.25;"/>
<line x1="179.000000" y1="74.000000" x2="183.000000" y2="74.000000"  style="stroke:black; stroke-linecap:round; stroke-width:0.25;"/>
<line x1="179.000000" y1="82.000000" x2="183.000000" y2="82.000000"  style="stroke:black; stroke-linecap:round; stroke-width:0.25;"/>
<line x1="179.000000" y1="106.000000" x2="179.900000" y2="106.000000"  style="stroke:black; stroke-linecap:round; stroke-width:0.25;"/>
<line x1="179.000000" y1="114.000000" x2="179.900000" y2="114.000000"  style="stroke:black; stroke-linecap:round; stroke-width:0.25;"/>
<line x1="179.000000" y1="138.000000" x2="183.000000" y2="138.000000"  style="stroke:black; stroke-linecap:round; stroke-width:0.25;"/>
<line x1="179.000000" y1="146.000000" x2="183.000000" y2="146.000000"  style="stroke:black; stroke-linecap:round; stroke-width:0.25;"/>
<line x1="179.000000" y1="170.000000" x2="183.000000" y2="170.000000"  style="stroke:black; stroke-linecap:round; stroke-width:0.25;"/>
<line x1="179.000000" y1="178.000000" x2="183.000000" y2="178.000000"  style="stroke:black; stroke-linecap:round; stroke-width:0.25;"/>
<line x1="179.000000" y1="202.000000" x2="183.000000" y2="202.000000"  style="stroke:black; stroke-linecap:round; stroke-width:0.25;"/>
<line x1="179.000000" y1="210.000000" x2="183.000000" y2="210.000000"  style="stroke:black; stroke-linecap:round; stroke-width:0.25;"/>
<line x1="179.900000" y1="42.000000" x2="183.900000" y2="42.000000"  style="stroke:black; stroke-linecap:round; stroke-width:0.25;"/>
<line x1="179.900000" y1="50.000000" x2="183.900000" y2="50.000000"  style="stroke:black; stroke-linecap:round; stroke-width:0.25;"/>
<line x1="179.900000" y1="106.000000" x2="183.900000" y2="106.000000"  style="stroke:black; stroke-linecap:round; stroke-width:0.25;"/>
<line x1="179.900000" y1="114.000000" x2="183.900000" y2="114.000000"  style="stroke:black; stroke-linecap:round; stroke-width:0.25;"/>
<line x1="183.000000" y1="170.000000" x2="199.000000" y2="170.000000"  style="stroke:black; stroke-linecap:round; stroke-width:0.25;"/>
<line x1="183.000000" y1="178.000000" x2="199.000000" y2="178.000000"  style="stroke:black; stroke-linecap:round; stroke-width:0.25;"/>
<line x1="183.000000" y1="202.000000" x2="187.000000" y2="202.000000"  style="stroke:black; stroke-linecap:round; stroke-width:0.25;"/>
<line x1="183.000000" y1="210.000000" x2="187.000000" y2="210.000000"  style="stroke:black; stroke-linecap:round; stroke-width:0.25;"/>
<line x1="199.000000" y1="170.000000" x2="203.000000" y2="170.000000"  style="stroke:black; stroke-linecap:round; stroke-width:0.25;"/>
<line x1="199.000000" y1="178.000000" x2="203.000000" y2="178.000000"  style="stroke:black; stroke-linecap:round; stroke-width:0.25;"/>
<line x1="207.900000" y1="46.000000" x2="211.900000" y2="46.000000"  style="stroke:black; stroke-linecap:round; stroke-width:0.25;"/>
<line x1="207.900000" y1="110.000000" x2="211.900000" y2="110.000000"  style="stroke:black; stroke-linecap:round; stroke-width:0.25;"/>
<line x1="208.800000" y1="78.000000" x2="212.800000" y2="78.000000"  style="stroke:black; stroke-linecap:round; stroke-width:0.25;"/>
<line x1="208.800000" y1="142.000000" x2="212.800000" y2="142.000000"  style="stroke:black; stroke-linecap:round; stroke-width:0.25;"/>
<line x1="211.900000" y1="46.000000" x2="212.800000" y2="46.000000"  style="stroke:black; stroke-linecap:round; stroke-width:0.25;"/>
<line x1="211.900000" y1="110.000000" x2="212.800000" y2="110.000000"  style="stroke:black; stroke-linecap:round; stroke-width:0.25;"/>
<line x1="212.800000" y1="46.000000" x2="220.800000" y2="46.000000"  style="stroke:black; stroke-linecap:round; stroke-width:0.25;"/>
<line x1="212.800000" y1="66.000000" x2="220.800000" y2="66.000000"  style="stroke:black; stroke-linecap:round; stroke-width:0.25;"/>
<line x1="212.800000" y1="78.000000" x2="212.800000" y2="66.000000"  style="stroke:black; stroke-linecap:round; stroke-width:0.25;"/>
<line x1="212.800000" y1="78.000000" x2="212.800000" y2="78.000000"  style="stroke:black; stroke-linecap:round; stroke-width:0.25;"/>
<line x1="212.800000" y1="110.000000" x2="220.800000" y2="110.000000"  style="stroke:black; stroke-linecap:round; stroke-width:0.25;"/>
<line x1="212.800000" y1="130.000000" x2="220.800000" y2="130.000000"  style="stroke:black; stroke-linecap:round; stroke-width:0.25;"/>
<line x1="212.800000" y1="142.000000" x2="212.800000" y2="130.000000"  style="stroke:black; stroke-linecap:round; stroke-width:0.25;"/>
<line x1="212.800000" y1="142.000000" x2="212.800000" y2="142.000000"  style="stroke:black; stroke-linecap:round; stroke-width:0.25;"/>
<line x1="212.800000" y1="206.000000" x2="216.800000" y2="206.000000"  style="stroke:black; stroke-linecap:round; stroke-width:0.25;"/>
<line x1="216.800000" y1="206.000000" x2="216.800000" y2="206.000000"  style="stroke:black; stroke-linecap:round; stroke-width:0.25;"/>
<line x1="216.800000" y1="206.000000" x2="220.800000" y2="206.000000"  style="stroke:black; stroke-linecap:round; stroke-width:0.25;"/>
<line x1="220.800000" y1="46.000000" x2="220.800000" y2="58.000000"  style="stroke:black; stroke-linecap:round; stroke-width:0.25;"/>
<line x1="220.800000" y1="58.000000" x2="220.800000" y2="58.000000"  style="stroke:black; stroke-linecap:round; stroke-width:0.25;"/>
<line x1="220.800000" y1="58.000000" x2="224.800000" y2="58.000000"  style="stroke:black; stroke-linecap:round; stroke-width:0.25;"/>
<line x1="220.800000" y1="66.000000" x2="224.800000" y2="66.000000"  style="stroke:black; stroke-linecap:round; stroke-width:0.25;"/>
<line x1="220.800000" y1="110.000000" x2="220.800000" y2="122.000000"  style="stroke:black; stroke-linecap:round; stroke-width:0.25;"/>
<line x1="220.800000" y1="122.000000" x2="220.800000" y2="122.000000"  style="stroke:black; stroke-linecap:round; stroke-width:0.25;"/>
<line x1="220.800000" y1="122.000000" x2="224.800000" y2="122.000000"  style="stroke:black; stroke-linecap:round; stroke-width:0.25;"/>
<line x1="220.800000" y1="130.000000" x2="224.800000" y2="130.000000"  style="stroke:black; stroke-linecap:round; stroke-width:0.25;"/>
<line x1="228.800000" y1="174.000000" x2="232.800000" y2="174.000000"  style="stroke:black; stroke-linecap:round; stroke-width:0.25;"/>
<line x1="232.800000" y1="174.000000" x2="232.800000" y2="174.000000"  style="stroke:black; stroke-linecap:round; stroke-width:0.25;"/>
<line x1="232.800000" y1="174.000000" x2="236.800000" y2="174.000000"  style="stroke:black; stroke-linecap:round; stroke-width:0.25;"/>
<line x1="244.800000" y1="206.000000" x2="248.800000" y2="206.000000"  style="stroke:black; stroke-linecap:round; stroke-width:0.25;"/>
<line x1="248.800000" y1="62.000000" x2="252.800000" y2="62.000000"  style="stroke:black; stroke-linecap:round; stroke-width:0.25;"/>
<line x1="248.800000" y1="126.000000" x2="252.800000" y2="126.000000"  style="stroke:black; stroke-linecap:round; stroke-width:0.25;"/>
<line x1="248.800000" y1="206.000000" x2="248.800000" y2="206.000000"  style="stroke:black; stroke-linecap:round; stroke-width:0.25;"/>
<line x1="248.800000" y1="206.000000" x2="252.800000" y2="206.000000"  style="stroke:black; stroke-linecap:round; stroke-width:0.25;"/>
<line x1="252.800000" y1="62.000000" x2="252.800000" y2="62.000000"  style="stroke:black; stroke-linecap:round; stroke-width:0.25;"/>
<line x1="252.800000" y1="62.000000" x2="256.800000" y2="62.000000"  style="stroke:black; stroke-linecap:round; stroke-width:0.25;"/>
<line x1="252.800000" y1="126.000000" x2="252.800000" y2="126.000000"  style="stroke:black; stroke-linecap:round; stroke-width:0.25;"/>
<line x1="252.800000" y1="126.000000" x2="256.800000" y2="126.000000"  style="stroke:black; stroke-linecap:round; stroke-width:0.25;"/>
<line x1="262.600000" y1="174.000000" x2="266.600000" y2="174.000000"  style="stroke:black; stroke-linecap:round; stroke-width:0.25;"/>
<line x1="266.600000" y1="174.000000" x2="282.600000" y2="174.000000"  style="stroke:black; stroke-linecap:round; stroke-width:0.25;"/>
<line x1="278.600000" y1="206.000000" x2="282.600000" y2="206.000000"  style="stroke:black; stroke-linecap:round; stroke-width:0.25;"/>
<line x1="282.600000" y1="62.000000" x2="286.600000" y2="62.000000"  style="stroke:black; stroke-linecap:round; stroke-width:0.25;"/>
<line x1="282.600000" y1="126.000000" x2="286.600000" y2="126.000000"  style="stroke:black; stroke-linecap:round; stroke-width:0.25;"/>
<line x1="282.600000" y1="174.000000" x2="286.600000" y2="174.000000"  style="stroke:black; stroke-linecap:round; stroke-width:0.25;"/>
<line x1="282.600000" y1="206.000000" x2="286.600000" y2="206.000000"  style="stroke:black; stroke-linecap:round; stroke-width:0.25;"/>
<line x1="286.600000" y1="62.000000" x2="296.600000" y2="62.000000"  style="stroke:black; stroke-linecap:round; stroke-width:0.25;"/>
<line x1="286.600000" y1="126.000000" x2="296.600000" y2="126.000000"  style="stroke:black; stroke-linecap:round; stroke-width:0.25;"/>
<line x1="286.600000" y1="174.000000" x2="296.600000" y2="174.000000"  style="stroke:black; stroke-linecap:round; stroke-width:0.25;"/>
<line x1="286.600000" y1="206.000000" x2="296.600000" y2="206.000000"  style="stroke:black; stroke-linecap:round; stroke-width:0.25;"/>
<line x1="296.600000" y1="62.000000" x2="320.600000" y2="62.000000"  style="stroke:black; stroke-linecap:round; stroke-width:0.25;"/>
<line x1="296.600000" y1="122.000000" x2="320.600000" y2="122.000000"  style="stroke:black; stroke-linecap:round; stroke-width:0.25;"/>
<line x1="296.600000" y1="126.000000" x2="296.600000" y2="122.000000"  style="stroke:black; stroke-linecap:round; stroke-width:0.25;"/>
<line x1="296.600000" y1="126.000000" x2="296.600000" y2="126.000000"  style="stroke:black; stroke-linecap:round; stroke-width:0.25;"/>
<line x1="296.600000" y1="174.000000" x2="304.600000" y2="174.000000"  style="stroke:black; stroke-linecap:round; stroke-width:0.25;"/>
<line x1="296.600000" y1="206.000000" x2="312.600000" y2="206.000000"  style="stroke:black; stroke-linecap:round; stroke-width:0.25;"/>
<line x1="304.600000" y1="130.000000" x2="320.600000" y2="130.000000"  style="stroke:black; stroke-linecap:round; stroke-width:0.25;"/>
<line x1="304.600000" y1="174.000000" x2="304.600000" y2="130.000000"  style="stroke:black; stroke-linecap:round; stroke-width:0.25;"/>
<line x1="312.600000" y1="138.000000" x2="320.600000" y2="138.000000"  style="stroke:black; stroke-linecap:round; stroke-width:0.25;"/>
<line x1="312.600000" y1="206.000000" x2="312.600000" y2="138.000000"  style="stroke:black; stroke-linecap:round; stroke-width:0.25;"/>
<line x1="320.600000" y1="62.000000" x2="320.600000" y2="114.000000"  style="stroke:black; stroke-linecap:round; stroke-width:0.25;"/>
<line x1="320.600000" y1="114.000000" x2="320.600000" y2="114.000000"  style="stroke:black; stroke-linecap:round; stroke-width:0.25;"/>
<line x1="320.600000" y1="114.000000" x2="324.600000" y2="114.000000"  style="stroke:black; stroke-linecap:round; stroke-width:0.25;"/>
<line x1="320.600000" y1="122.000000" x2="324.600000" y2="122.000000"  style="stroke:black; stroke-linecap:round; stroke-width:0.25;"/>
<line x1="320.600000" y1="130.000000" x2="324.600000" y2="130.000000"  style="stroke:black; stroke-linecap:round; stroke-width:0.25;"/>
<line x1="320.600000" y1="138.000000" x2="324.600000" y2="138.000000"  style="stroke:black; stroke-linecap:round; stroke-width:0.25;"/>
<line x1="324.600000" y1="114.000000" x2="328.600000" y2="114.000000"  style="stroke:black; stroke-linecap:round; stroke-width:0.25;"/>
<line x1="324.600000" y1="122.000000" x2="328.600000" y2="122.000000"  style="stroke:black; stroke-linecap:round; stroke-width:0.25;"/>
<line x1="324.600000" y1="130.000000" x2="328.600000" y2="130.000000"  style="stroke:black; stroke-linecap:round; stroke-width:0.25;"/>
<line x1="324.600000" y1="138.000000" x2="328.600000" y2="138.000000"  style="stroke:black; stroke-linecap:round; stroke-width:0.25;"/>
<line x1="328.600000" y1="114.000000" x2="338.600000" y2="114.000000"  style="stroke:black; stroke-linecap:round; stroke-width:0.25;"/>
<line x1="328.600000" y1="122.000000" x2="338.600000" y2="122.000000"  style="stroke:black; stroke-linecap:round; stroke-width:0.25;"/>
<line x1="328.600000" y1="130.000000" x2="338.600000" y2="130.000000"  style="stroke:black; stroke-linecap:round; stroke-width:0.25;"/>
<line x1="328.600000" y1="138.000000" x2="338.600000" y2="138.000000"  style="stroke:black; stroke-linecap:round; stroke-width:0.25;"/>
</svg>
