<?xml version="1.0"?>
<svg xmlns="http://www.w3.org/2000/svg" xmlns:xlink="http://www.w3.org/1999/xlink" viewBox="0 0 233.800000 188.000000" width="116.900000mm" height="94.000000mm" version="1.1">
<a xlink:href="a1d-0x7ffc3bdb9150.svg">
<rect x="1.000000" y="1.000000" width="232.800000" height="187.000000" rx="0" ry="0" style="stroke:none;fill:#cccccc;"/>
<rect x="0.000000" y="0.000000" width="232.800000" height="187.000000" rx="0" ry="0" style="stroke:none;fill:#ffffff;"/>
</a>
<text x="10.000000" y="7.000000" font-family="Arial" font-size="7"></text>
<rect x="81.900000" y="35.000000" width="24.000000" height="24.000000" rx="0" ry="0" style="stroke:none;fill:#cccccc;"/>
<rect x="80.900000" y="34.000000" width="24.000000" height="24.000000" rx="0" ry="0" style="stroke:none;fill:#f44800;"/>
<text x="92.900000" y="48.000000" font-family="Arial" font-size="7" text-anchor="middle" fill="#FFFFFF">1</text>
<circle cx="82.900000" cy="36.000000" r="1"/>
<line x1="71.900000" y1="25.000000" x2="71.900000" y2="67.000000"  style="stroke: black; stroke-linecap:round; stroke-width:0.25; stroke-dasharray:3,3;"/>
<line x1="71.900000" y1="67.000000" x2="113.900000" y2="67.000000"  style="stroke: black; stroke-linecap:round; stroke-width:0.25; stroke-dasharray:3,3;"/>
<line x1="113.900000" y1="67.000000" x2="113.900000" y2="25.000000"  style="stroke: black; stroke-linecap:round; stroke-width:0.25; stroke-dasharray:3,3;"/>
<line x1="71.900000" y1="25.000000" x2="76.900000" y2="25.000000"  style="stroke: black; stroke-linecap:round; stroke-width:0.25; stroke-dasharray:3,3;"/>
<line x1="89.800000" y1="25.000000" x2="113.900000" y2="25.000000"  style="stroke: black; stroke-linecap:round; stroke-width:0.25; stroke-dasharray:3,3;"/>
<text x="76.900000" y="27.000000" font-family="Arial" font-size="7">nb</text>
<rect x="25.000000" y="77.000000" width="25.800000" height="24.000000" rx="0" ry="0" style="stroke:none;fill:#cccccc;"/>
<rect x="24.000000" y="76.000000" width="25.800000" height="24.000000" rx="0" ry="0" style="stroke:none;fill:#f44800;"/>
<text x="36.900000" y="90.000000" font-family="Arial" font-size="7" text-anchor="middle" fill="#FFFFFF">15708</text>
<circle cx="26.000000" cy="78.000000" r="1"/>
<rect x="25.900000" y="109.000000" width="24.000000" height="24.000000" rx="0" ry="0" style="stroke:none;fill:#cccccc;"/>
<rect x="24.900000" y="108.000000" width="24.000000" height="24.000000" rx="0" ry="0" style="stroke:none;fill:#f44800;"/>
<text x="36.900000" y="122.000000" font-family="Arial" font-size="7" text-anchor="middle" fill="#FFFFFF">0.5</text>
<circle cx="26.900000" cy="110.000000" r="1"/>
<rect x="66.800000" y="93.000000" width="24.000000" height="24.000000" rx="0" ry="0" style="stroke:none;fill:#cccccc;"/>
<rect x="65.800000" y="92.000000" width="24.000000" height="24.000000" rx="0" ry="0" style="stroke:none;fill:#4B71A1;"/>
<text x="77.800000" y="106.000000" font-family="Arial" font-size="7" text-anchor="middle" fill="#FFFFFF">*</text>
<circle cx="67.800000" cy="94.000000" r="1"/>
<line x1="62.800000" y1="99.000000" x2="65.800000" y2="100.000000"  transform="rotate(0.000000,65.800000,100.000000)" style="stroke: black; stroke-width:0.25;"/>
<line x1="62.800000" y1="101.000000" x2="65.800000" y2="100.000000"  transform="rotate(0.000000,65.800000,100.000000)" style="stroke: black; stroke-width:0.25;"/>
<line x1="62.800000" y1="107.000000" x2="65.800000" y2="108.000000"  transform="rotate(0.000000,65.800000,108.000000)" style="stroke: black; stroke-width:0.25;"/>
<line x1="62.800000" y1="109.000000" x2="65.800000" y2="108.000000"  transform="rotate(0.000000,65.800000,108.000000)" style="stroke: black; stroke-width:0.25;"/>
<a xlink:href="SR-0x7ffc3bdb7fb0.svg">
<rect x="45.900000" y="141.000000" width="24.000000" height="24.000000" rx="0" ry="0" style="stroke:none;fill:#cccccc;"/>
<rect x="44.900000" y="140.000000" width="24.000000" height="24.000000" rx="0" ry="0" style="stroke:none;fill:#003366;"/>
</a>
<a xlink:href="SR-0x7ffc3bdb7fb0.svg">
<text x="56.900000" y="154.000000" font-family="Arial" font-size="7" text-anchor="middle" fill="#FFFFFF">SR</text>
</a>
<circle cx="46.900000" cy="142.000000" r="1"/>
<rect x="106.800000" y="109.000000" width="24.000000" height="24.000000" rx="0" ry="0" style="stroke:none;fill:#cccccc;"/>
<rect x="105.800000" y="108.000000" width="24.000000" height="24.000000" rx="0" ry="0" style="stroke:none;fill:#4B71A1;"/>
<text x="117.800000" y="122.000000" font-family="Arial" font-size="7" text-anchor="middle" fill="#FFFFFF">/</text>
<circle cx="107.800000" cy="110.000000" r="1"/>
<line x1="102.800000" y1="115.000000" x2="105.800000" y2="116.000000"  transform="rotate(0.000000,105.800000,116.000000)" style="stroke: black; stroke-width:0.25;"/>
<line x1="102.800000" y1="117.000000" x2="105.800000" y2="116.000000"  transform="rotate(0.000000,105.800000,116.000000)" style="stroke: black; stroke-width:0.25;"/>
<line x1="102.800000" y1="123.000000" x2="105.800000" y2="124.000000"  transform="rotate(0.000000,105.800000,124.000000)" style="stroke: black; stroke-width:0.25;"/>
<line x1="102.800000" y1="125.000000" x2="105.800000" y2="124.000000"  transform="rotate(0.000000,105.800000,124.000000)" style="stroke: black; stroke-width:0.25;"/>
<rect x="138.800000" y="109.000000" width="24.000000" height="24.000000" rx="0" ry="0" style="stroke:none;fill:#cccccc;"/>
<rect x="137.800000" y="108.000000" width="24.000000" height="24.000000" rx="0" ry="0" style="stroke:none;fill:#4B71A1;"/>
<text x="149.800000" y="122.000000" font-family="Arial" font-size="7" text-anchor="middle" fill="#FFFFFF">tan</text>
<circle cx="139.800000" cy="110.000000" r="1"/>
<line x1="134.800000" y1="119.000000" x2="137.800000" y2="120.000000"  transform="rotate(0.000000,137.800000,120.000000)" style="stroke: black; stroke-width:0.25;"/>
<line x1="134.800000" y1="121.000000" x2="137.800000" y2="120.000000"  transform="rotate(0.000000,137.800000,120.000000)" style="stroke: black; stroke-width:0.25;"/>
<rect x="178.800000" y="83.000000" width="24.000000" height="24.000000" rx="0" ry="0" style="stroke:none;fill:#cccccc;"/>
<rect x="177.800000" y="82.000000" width="24.000000" height="24.000000" rx="0" ry="0" style="stroke:none;fill:#4B71A1;"/>
<text x="189.800000" y="96.000000" font-family="Arial" font-size="7" text-anchor="middle" fill="#FFFFFF">/</text>
<circle cx="179.800000" cy="84.000000" r="1"/>
<line x1="174.800000" y1="89.000000" x2="177.800000" y2="90.000000"  transform="rotate(0.000000,177.800000,90.000000)" style="stroke: black; stroke-width:0.25;"/>
<line x1="174.800000" y1="91.000000" x2="177.800000" y2="90.000000"  transform="rotate(0.000000,177.800000,90.000000)" style="stroke: black; stroke-width:0.25;"/>
<line x1="174.800000" y1="97.000000" x2="177.800000" y2="98.000000"  transform="rotate(0.000000,177.800000,98.000000)" style="stroke: black; stroke-width:0.25;"/>
<line x1="174.800000" y1="99.000000" x2="177.800000" y2="98.000000"  transform="rotate(0.000000,177.800000,98.000000)" style="stroke: black; stroke-width:0.25;"/>
<line x1="15.000000" y1="15.000000" x2="15.000000" y2="173.000000"  style="stroke: black; stroke-linecap:round; stroke-width:0.25; stroke-dasharray:3,3;"/>
<line x1="15.000000" y1="173.000000" x2="218.800000" y2="173.000000"  style="stroke: black; stroke-linecap:round; stroke-width:0.25; stroke-dasharray:3,3;"/>
<line x1="218.800000" y1="173.000000" x2="218.800000" y2="15.000000"  style="stroke: black; stroke-linecap:round; stroke-width:0.25; stroke-dasharray:3,3;"/>
<line x1="15.000000" y1="15.000000" x2="20.000000" y2="15.000000"  style="stroke: black; stroke-linecap:round; stroke-width:0.25; stroke-dasharray:3,3;"/>
<line x1="29.675000" y1="15.000000" x2="218.800000" y2="15.000000"  style="stroke: black; stroke-linecap:round; stroke-width:0.25; stroke-dasharray:3,3;"/>
<text x="20.000000" y="17.000000" font-family="Arial" font-size="7">c</text>
<line x1="220.800000" y1="93.000000" x2="223.800000" y2="94.000000"  transform="rotate(0.000000,223.800000,94.000000)" style="stroke: black; stroke-width:0.25;"/>
<line x1="220.800000" y1="95.000000" x2="223.800000" y2="94.000000"  transform="rotate(0.000000,223.800000,94.000000)" style="stroke: black; stroke-width:0.25;"/>
<line x1="48.900000" y1="120.000000" x2="52.900000" y2="120.000000"  style="stroke:black; stroke-linecap:round; stroke-width:0.25;"/>
<line x1="49.800000" y1="88.000000" x2="53.800000" y2="88.000000"  style="stroke:black; stroke-linecap:round; stroke-width:0.25;"/>
<line x1="52.900000" y1="120.000000" x2="53.800000" y2="120.000000"  style="stroke:black; stroke-linecap:round; stroke-width:0.25;"/>
<line x1="53.800000" y1="88.000000" x2="61.800000" y2="88.000000"  style="stroke:black; stroke-linecap:round; stroke-width:0.25;"/>
<line x1="53.800000" y1="108.000000" x2="61.800000" y2="108.000000"  style="stroke:black; stroke-linecap:round; stroke-width:0.25;"/>
<line x1="53.800000" y1="120.000000" x2="53.800000" y2="108.000000"  style="stroke:black; stroke-linecap:round; stroke-width:0.25;"/>
<line x1="53.800000" y1="120.000000" x2="53.800000" y2="120.000000"  style="stroke:black; stroke-linecap:round; stroke-width:0.25;"/>
<line x1="61.800000" y1="88.000000" x2="61.800000" y2="100.000000"  style="stroke:black; stroke-linecap:round; stroke-width:0.25;"/>
<line x1="61.800000" y1="100.000000" x2="61.800000" y2="100.000000"  style="stroke:black; stroke-linecap:round; stroke-width:0.25;"/>
<line x1="61.800000" y1="100.000000" x2="65.800000" y2="100.000000"  style="stroke:black; stroke-linecap:round; stroke-width:0.25;"/>
<line x1="61.800000" y1="108.000000" x2="65.800000" y2="108.000000"  style="stroke:black; stroke-linecap:round; stroke-width:0.25;"/>
<line x1="68.900000" y1="152.000000" x2="72.900000" y2="152.000000"  style="stroke:black; stroke-linecap:round; stroke-width:0.25;"/>
<line x1="72.900000" y1="152.000000" x2="93.800000" y2="152.000000"  style="stroke:black; stroke-linecap:round; stroke-width:0.25;"/>
<line x1="89.800000" y1="104.000000" x2="93.800000" y2="104.000000"  style="stroke:black; stroke-linecap:round; stroke-width:0.25;"/>
<line x1="93.800000" y1="104.000000" x2="101.800000" y2="104.000000"  style="stroke:black; stroke-linecap:round; stroke-width:0.25;"/>
<line x1="93.800000" y1="124.000000" x2="101.800000" y2="124.000000"  style="stroke:black; stroke-linecap:round; stroke-width:0.25;"/>
<line x1="93.800000" y1="152.000000" x2="93.800000" y2="124.000000"  style="stroke:black; stroke-linecap:round; stroke-width:0.25;"/>
<line x1="93.800000" y1="152.000000" x2="93.800000" y2="152.000000"  style="stroke:black; stroke-linecap:round; stroke-width:0.25;"/>
<line x1="101.800000" y1="104.000000" x2="101.800000" y2="116.000000"  style="stroke:black; stroke-linecap:round; stroke-width:0.25;"/>
<line x1="101.800000" y1="116.000000" x2="101.800000" y2="116.000000"  style="stroke:black; stroke-linecap:round; stroke-width:0.25;"/>
<line x1="101.800000" y1="116.000000" x2="105.800000" y2="116.000000"  style="stroke:black; stroke-linecap:round; stroke-width:0.25;"/>
<line x1="101.800000" y1="124.000000" x2="105.800000" y2="124.000000"  style="stroke:black; stroke-linecap:round; stroke-width:0.25;"/>
<line x1="104.900000" y1="46.000000" x2="108.900000" y2="46.000000"  style="stroke:black; stroke-linecap:round; stroke-width:0.25;"/>
<line x1="108.900000" y1="46.000000" x2="118.900000" y2="46.000000"  style="stroke:black; stroke-linecap:round; stroke-width:0.25;"/>
<line x1="118.900000" y1="46.000000" x2="165.800000" y2="46.000000"  style="stroke:black; stroke-linecap:round; stroke-width:0.25;"/>
<line x1="129.800000" y1="120.000000" x2="133.800000" y2="120.000000"  style="stroke:black; stroke-linecap:round; stroke-width:0.25;"/>
<line x1="133.800000" y1="120.000000" x2="133.800000" y2="120.000000"  style="stroke:black; stroke-linecap:round; stroke-width:0.25;"/>
<line x1="133.800000" y1="120.000000" x2="137.800000" y2="120.000000"  style="stroke:black; stroke-linecap:round; stroke-width:0.25;"/>
<line x1="161.800000" y1="120.000000" x2="165.800000" y2="120.000000"  style="stroke:black; stroke-linecap:round; stroke-width:0.25;"/>
<line x1="165.800000" y1="46.000000" x2="173.800000" y2="46.000000"  style="stroke:black; stroke-linecap:round; stroke-width:0.25;"/>
<line x1="165.800000" y1="98.000000" x2="173.800000" y2="98.000000"  style="stroke:black; stroke-linecap:round; stroke-width:0.25;"/>
<line x1="165.800000" y1="120.000000" x2="165.800000" y2="98.000000"  style="stroke:black; stroke-linecap:round; stroke-width:0.25;"/>
<line x1="165.800000" y1="120.000000" x2="165.800000" y2="120.000000"  style="stroke:black; stroke-linecap:round; stroke-width:0.25;"/>
<line x1="173.800000" y1="46.000000" x2="173.800000" y2="90.000000"  style="stroke:black; stroke-linecap:round; stroke-width:0.25;"/>
<line x1="173.800000" y1="90.000000" x2="173.800000" y2="90.000000"  style="stroke:black; stroke-linecap:round; stroke-width:0.25;"/>
<line x1="173.800000" y1="90.000000" x2="177.800000" y2="90.000000"  style="stroke:black; stroke-linecap:round; stroke-width:0.25;"/>
<line x1="173.800000" y1="98.000000" x2="177.800000" y2="98.000000"  style="stroke:black; stroke-linecap:round; stroke-width:0.25;"/>
<line x1="201.800000" y1="94.000000" x2="205.800000" y2="94.000000"  style="stroke:black; stroke-linecap:round; stroke-width:0.25;"/>
<line x1="205.800000" y1="94.000000" x2="205.800000" y2="94.000000"  style="stroke:black; stroke-linecap:round; stroke-width:0.25;"/>
<line x1="205.800000" y1="94.000000" x2="209.800000" y2="94.000000"  style="stroke:black; stroke-linecap:round; stroke-width:0.25;"/>
<line x1="209.800000" y1="94.000000" x2="213.800000" y2="94.000000"  style="stroke:black; stroke-linecap:round; stroke-width:0.25;"/>
<line x1="213.800000" y1="94.000000" x2="223.800000" y2="94.000000"  style="stroke:black; stroke-linecap:round; stroke-width:0.25;"/>
</svg>
