<?xml version="1.0"?>
<svg xmlns="http://www.w3.org/2000/svg" xmlns:xlink="http://www.w3.org/1999/xlink" viewBox="0 0 493.600000 200.000000" width="246.800000mm" height="100.000000mm" version="1.1">
<rect x="1.000000" y="1.000000" width="492.600000" height="199.000000" rx="0" ry="0" style="stroke:none;fill:#cccccc;"/>
<rect x="0.000000" y="0.000000" width="492.600000" height="199.000000" rx="0" ry="0" style="stroke:none;fill:#ffffff;"/>
<text x="10.000000" y="7.000000" font-family="Arial" font-size="7"></text>
<rect x="49.000000" y="25.000000" width="24.000000" height="24.000000" rx="0" ry="0" style="stroke:none;fill:#cccccc;"/>
<rect x="48.000000" y="24.000000" width="24.000000" height="24.000000" rx="0" ry="0" style="stroke:none;fill:#47945E;"/>
<text x="60.000000" y="38.000000" font-family="Arial" font-size="7" text-anchor="middle" fill="#FFFFFF">L</text>
<circle cx="50.000000" cy="26.000000" r="1"/>
<line x1="45.000000" y1="35.000000" x2="48.000000" y2="36.000000"  transform="rotate(0.000000,48.000000,36.000000)" style="stroke: black; stroke-width:0.25;"/>
<line x1="45.000000" y1="37.000000" x2="48.000000" y2="36.000000"  transform="rotate(0.000000,48.000000,36.000000)" style="stroke: black; stroke-width:0.25;"/>
<rect x="49.000000" y="57.000000" width="24.000000" height="24.000000" rx="0" ry="0" style="stroke:none;fill:#cccccc;"/>
<rect x="48.000000" y="56.000000" width="24.000000" height="24.000000" rx="0" ry="0" style="stroke:none;fill:#47945E;"/>
<text x="60.000000" y="70.000000" font-family="Arial" font-size="7" text-anchor="middle" fill="#FFFFFF">R</text>
<circle cx="50.000000" cy="58.000000" r="1"/>
<line x1="45.000000" y1="67.000000" x2="48.000000" y2="68.000000"  transform="rotate(0.000000,48.000000,68.000000)" style="stroke: black; stroke-width:0.25;"/>
<line x1="45.000000" y1="69.000000" x2="48.000000" y2="68.000000"  transform="rotate(0.000000,48.000000,68.000000)" style="stroke: black; stroke-width:0.25;"/>
<rect x="49.000000" y="89.000000" width="24.000000" height="24.000000" rx="0" ry="0" style="stroke:none;fill:#cccccc;"/>
<rect x="48.000000" y="88.000000" width="24.000000" height="24.000000" rx="0" ry="0" style="stroke:none;fill:#47945E;"/>
<text x="60.000000" y="102.000000" font-family="Arial" font-size="7" text-anchor="middle" fill="#FFFFFF">Ls</text>
<circle cx="50.000000" cy="90.000000" r="1"/>
<line x1="45.000000" y1="99.000000" x2="48.000000" y2="100.000000"  transform="rotate(0.000000,48.000000,100.000000)" style="stroke: black; stroke-width:0.25;"/>
<line x1="45.000000" y1="101.000000" x2="48.000000" y2="100.000000"  transform="rotate(0.000000,48.000000,100.000000)" style="stroke: black; stroke-width:0.25;"/>
<rect x="49.000000" y="121.000000" width="24.000000" height="24.000000" rx="0" ry="0" style="stroke:none;fill:#cccccc;"/>
<rect x="48.000000" y="120.000000" width="24.000000" height="24.000000" rx="0" ry="0" style="stroke:none;fill:#47945E;"/>
<text x="60.000000" y="134.000000" font-family="Arial" font-size="7" text-anchor="middle" fill="#FFFFFF">Rs</text>
<circle cx="50.000000" cy="122.000000" r="1"/>
<line x1="45.000000" y1="131.000000" x2="48.000000" y2="132.000000"  transform="rotate(0.000000,48.000000,132.000000)" style="stroke: black; stroke-width:0.25;"/>
<line x1="45.000000" y1="133.000000" x2="48.000000" y2="132.000000"  transform="rotate(0.000000,48.000000,132.000000)" style="stroke: black; stroke-width:0.25;"/>
<rect x="49.000000" y="153.000000" width="24.000000" height="24.000000" rx="0" ry="0" style="stroke:none;fill:#cccccc;"/>
<rect x="48.000000" y="152.000000" width="24.000000" height="24.000000" rx="0" ry="0" style="stroke:none;fill:#47945E;"/>
<text x="60.000000" y="166.000000" font-family="Arial" font-size="7" text-anchor="middle" fill="#FFFFFF">Z</text>
<circle cx="50.000000" cy="154.000000" r="1"/>
<line x1="45.000000" y1="163.000000" x2="48.000000" y2="164.000000"  transform="rotate(0.000000,48.000000,164.000000)" style="stroke: black; stroke-width:0.25;"/>
<line x1="45.000000" y1="165.000000" x2="48.000000" y2="164.000000"  transform="rotate(0.000000,48.000000,164.000000)" style="stroke: black; stroke-width:0.25;"/>
<rect x="91.000000" y="73.000000" width="24.000000" height="24.000000" rx="0" ry="0" style="stroke:none;fill:#cccccc;"/>
<rect x="90.000000" y="72.000000" width="24.000000" height="24.000000" rx="0" ry="0" style="stroke:none;fill:#47945E;"/>
<text x="102.000000" y="86.000000" font-family="Arial" font-size="7" text-anchor="middle" fill="#FFFFFF">L</text>
<circle cx="92.000000" cy="74.000000" r="1"/>
<rect x="91.000000" y="105.000000" width="24.000000" height="24.000000" rx="0" ry="0" style="stroke:none;fill:#cccccc;"/>
<rect x="90.000000" y="104.000000" width="24.000000" height="24.000000" rx="0" ry="0" style="stroke:none;fill:#47945E;"/>
<text x="102.000000" y="118.000000" font-family="Arial" font-size="7" text-anchor="middle" fill="#FFFFFF">R</text>
<circle cx="92.000000" cy="106.000000" r="1"/>
<a xlink:href="fmid-0x2b3368040960.svg">
<rect x="191.000000" y="41.000000" width="25.800000" height="24.000000" rx="0" ry="0" style="stroke:none;fill:#cccccc;"/>
<rect x="190.000000" y="40.000000" width="25.800000" height="24.000000" rx="0" ry="0" style="stroke:none;fill:#003366;"/>
</a>
<a xlink:href="fmid-0x2b3368040960.svg">
<text x="202.900000" y="54.000000" font-family="Arial" font-size="7" text-anchor="middle" fill="#FFFFFF">fmid</text>
</a>
<circle cx="192.000000" cy="42.000000" r="1"/>
<line x1="187.000000" y1="47.000000" x2="190.000000" y2="48.000000"  transform="rotate(0.000000,190.000000,48.000000)" style="stroke: black; stroke-width:0.25;"/>
<line x1="187.000000" y1="49.000000" x2="190.000000" y2="48.000000"  transform="rotate(0.000000,190.000000,48.000000)" style="stroke: black; stroke-width:0.25;"/>
<line x1="187.000000" y1="55.000000" x2="190.000000" y2="56.000000"  transform="rotate(0.000000,190.000000,56.000000)" style="stroke: black; stroke-width:0.25;"/>
<line x1="187.000000" y1="57.000000" x2="190.000000" y2="56.000000"  transform="rotate(0.000000,190.000000,56.000000)" style="stroke: black; stroke-width:0.25;"/>
<a xlink:href="side-0x2b336809f870.svg">
<rect x="191.000000" y="73.000000" width="25.800000" height="24.000000" rx="0" ry="0" style="stroke:none;fill:#cccccc;"/>
<rect x="190.000000" y="72.000000" width="25.800000" height="24.000000" rx="0" ry="0" style="stroke:none;fill:#003366;"/>
</a>
<a xlink:href="side-0x2b336809f870.svg">
<text x="202.900000" y="86.000000" font-family="Arial" font-size="7" text-anchor="middle" fill="#FFFFFF">side</text>
</a>
<circle cx="192.000000" cy="74.000000" r="1"/>
<line x1="187.000000" y1="79.000000" x2="190.000000" y2="80.000000"  transform="rotate(0.000000,190.000000,80.000000)" style="stroke: black; stroke-width:0.25;"/>
<line x1="187.000000" y1="81.000000" x2="190.000000" y2="80.000000"  transform="rotate(0.000000,190.000000,80.000000)" style="stroke: black; stroke-width:0.25;"/>
<line x1="187.000000" y1="87.000000" x2="190.000000" y2="88.000000"  transform="rotate(0.000000,190.000000,88.000000)" style="stroke: black; stroke-width:0.25;"/>
<line x1="187.000000" y1="89.000000" x2="190.000000" y2="88.000000"  transform="rotate(0.000000,190.000000,88.000000)" style="stroke: black; stroke-width:0.25;"/>
<rect x="171.000000" y="105.000000" width="24.000000" height="24.000000" rx="0" ry="0" style="stroke:none;fill:#cccccc;"/>
<rect x="170.000000" y="104.000000" width="24.000000" height="24.000000" rx="0" ry="0" style="stroke:none;fill:#47945E;"/>
<text x="182.000000" y="118.000000" font-family="Arial" font-size="7" text-anchor="middle" fill="#FFFFFF">Ls</text>
<circle cx="172.000000" cy="106.000000" r="1"/>
<rect x="171.000000" y="137.000000" width="24.000000" height="24.000000" rx="0" ry="0" style="stroke:none;fill:#cccccc;"/>
<rect x="170.000000" y="136.000000" width="24.000000" height="24.000000" rx="0" ry="0" style="stroke:none;fill:#47945E;"/>
<text x="182.000000" y="150.000000" font-family="Arial" font-size="7" text-anchor="middle" fill="#FFFFFF">Rs</text>
<circle cx="172.000000" cy="138.000000" r="1"/>
<a xlink:href="rmid-0x2b33680a0130.svg">
<rect x="211.000000" y="121.000000" width="25.800000" height="24.000000" rx="0" ry="0" style="stroke:none;fill:#cccccc;"/>
<rect x="210.000000" y="120.000000" width="25.800000" height="24.000000" rx="0" ry="0" style="stroke:none;fill:#003366;"/>
</a>
<a xlink:href="rmid-0x2b33680a0130.svg">
<text x="222.900000" y="134.000000" font-family="Arial" font-size="7" text-anchor="middle" fill="#FFFFFF">rmid</text>
</a>
<circle cx="212.000000" cy="122.000000" r="1"/>
<line x1="207.000000" y1="127.000000" x2="210.000000" y2="128.000000"  transform="rotate(0.000000,210.000000,128.000000)" style="stroke: black; stroke-width:0.25;"/>
<line x1="207.000000" y1="129.000000" x2="210.000000" y2="128.000000"  transform="rotate(0.000000,210.000000,128.000000)" style="stroke: black; stroke-width:0.25;"/>
<line x1="207.000000" y1="135.000000" x2="210.000000" y2="136.000000"  transform="rotate(0.000000,210.000000,136.000000)" style="stroke: black; stroke-width:0.25;"/>
<line x1="207.000000" y1="137.000000" x2="210.000000" y2="136.000000"  transform="rotate(0.000000,210.000000,136.000000)" style="stroke: black; stroke-width:0.25;"/>
<line x1="81.000000" y1="31.000000" x2="81.000000" y2="169.000000"  style="stroke: black; stroke-linecap:round; stroke-width:0.25; stroke-dasharray:3,3;"/>
<line x1="81.000000" y1="169.000000" x2="244.800000" y2="169.000000"  style="stroke: black; stroke-linecap:round; stroke-width:0.25; stroke-dasharray:3,3;"/>
<line x1="244.800000" y1="169.000000" x2="244.800000" y2="31.000000"  style="stroke: black; stroke-linecap:round; stroke-width:0.25; stroke-dasharray:3,3;"/>
<line x1="81.000000" y1="31.000000" x2="86.000000" y2="31.000000"  style="stroke: black; stroke-linecap:round; stroke-width:0.25; stroke-dasharray:3,3;"/>
<line x1="150.500000" y1="31.000000" x2="244.800000" y2="31.000000"  style="stroke: black; stroke-linecap:round; stroke-width:0.25; stroke-dasharray:3,3;"/>
<text x="86.000000" y="33.000000" font-family="Arial" font-size="7">hgroup(Double M/S)</text>
<a xlink:href="W-0x2b33680a0bd0.svg">
<rect x="395.700000" y="31.000000" width="24.000000" height="24.000000" rx="0" ry="0" style="stroke:none;fill:#cccccc;"/>
<rect x="394.700000" y="30.000000" width="24.000000" height="24.000000" rx="0" ry="0" style="stroke:none;fill:#003366;"/>
</a>
<a xlink:href="W-0x2b33680a0bd0.svg">
<text x="406.700000" y="44.000000" font-family="Arial" font-size="7" text-anchor="middle" fill="#FFFFFF">W</text>
</a>
<circle cx="396.700000" cy="32.000000" r="1"/>
<line x1="391.700000" y1="37.000000" x2="394.700000" y2="38.000000"  transform="rotate(0.000000,394.700000,38.000000)" style="stroke: black; stroke-width:0.25;"/>
<line x1="391.700000" y1="39.000000" x2="394.700000" y2="38.000000"  transform="rotate(0.000000,394.700000,38.000000)" style="stroke: black; stroke-width:0.25;"/>
<line x1="391.700000" y1="45.000000" x2="394.700000" y2="46.000000"  transform="rotate(0.000000,394.700000,46.000000)" style="stroke: black; stroke-width:0.25;"/>
<line x1="391.700000" y1="47.000000" x2="394.700000" y2="46.000000"  transform="rotate(0.000000,394.700000,46.000000)" style="stroke: black; stroke-width:0.25;"/>
<a xlink:href="X-0x2b33680a2fb0.svg">
<rect x="395.700000" y="63.000000" width="24.000000" height="24.000000" rx="0" ry="0" style="stroke:none;fill:#cccccc;"/>
<rect x="394.700000" y="62.000000" width="24.000000" height="24.000000" rx="0" ry="0" style="stroke:none;fill:#003366;"/>
</a>
<a xlink:href="X-0x2b33680a2fb0.svg">
<text x="406.700000" y="76.000000" font-family="Arial" font-size="7" text-anchor="middle" fill="#FFFFFF">X</text>
</a>
<circle cx="396.700000" cy="64.000000" r="1"/>
<line x1="391.700000" y1="69.000000" x2="394.700000" y2="70.000000"  transform="rotate(0.000000,394.700000,70.000000)" style="stroke: black; stroke-width:0.25;"/>
<line x1="391.700000" y1="71.000000" x2="394.700000" y2="70.000000"  transform="rotate(0.000000,394.700000,70.000000)" style="stroke: black; stroke-width:0.25;"/>
<line x1="391.700000" y1="77.000000" x2="394.700000" y2="78.000000"  transform="rotate(0.000000,394.700000,78.000000)" style="stroke: black; stroke-width:0.25;"/>
<line x1="391.700000" y1="79.000000" x2="394.700000" y2="78.000000"  transform="rotate(0.000000,394.700000,78.000000)" style="stroke: black; stroke-width:0.25;"/>
<a xlink:href="Y-0x2b33680a32b0.svg">
<rect x="395.700000" y="95.000000" width="24.000000" height="24.000000" rx="0" ry="0" style="stroke:none;fill:#cccccc;"/>
<rect x="394.700000" y="94.000000" width="24.000000" height="24.000000" rx="0" ry="0" style="stroke:none;fill:#003366;"/>
</a>
<a xlink:href="Y-0x2b33680a32b0.svg">
<text x="406.700000" y="108.000000" font-family="Arial" font-size="7" text-anchor="middle" fill="#FFFFFF">Y</text>
</a>
<circle cx="396.700000" cy="96.000000" r="1"/>
<line x1="391.700000" y1="105.000000" x2="394.700000" y2="106.000000"  transform="rotate(0.000000,394.700000,106.000000)" style="stroke: black; stroke-width:0.25;"/>
<line x1="391.700000" y1="107.000000" x2="394.700000" y2="106.000000"  transform="rotate(0.000000,394.700000,106.000000)" style="stroke: black; stroke-width:0.25;"/>
<rect x="378.800000" y="137.000000" width="24.000000" height="24.000000" rx="0" ry="0" style="stroke:none;fill:#cccccc;"/>
<rect x="377.800000" y="136.000000" width="24.000000" height="24.000000" rx="0" ry="0" style="stroke:none;fill:#47945E;"/>
<text x="389.800000" y="150.000000" font-family="Arial" font-size="7" text-anchor="middle" fill="#FFFFFF">Z</text>
<circle cx="379.800000" cy="138.000000" r="1"/>
<a xlink:href="hmeter-0x2b33680a2c90.svg">
<rect x="410.800000" y="137.000000" width="25.800000" height="24.000000" rx="0" ry="0" style="stroke:none;fill:#cccccc;"/>
<rect x="409.800000" y="136.000000" width="25.800000" height="24.000000" rx="0" ry="0" style="stroke:none;fill:#003366;"/>
</a>
<a xlink:href="hmeter-0x2b33680a2c90.svg">
<text x="422.700000" y="150.000000" font-family="Arial" font-size="7" text-anchor="middle" fill="#FFFFFF">hmeter</text>
</a>
<circle cx="411.800000" cy="138.000000" r="1"/>
<line x1="406.800000" y1="147.000000" x2="409.800000" y2="148.000000"  transform="rotate(0.000000,409.800000,148.000000)" style="stroke: black; stroke-width:0.25;"/>
<line x1="406.800000" y1="149.000000" x2="409.800000" y2="148.000000"  transform="rotate(0.000000,409.800000,148.000000)" style="stroke: black; stroke-width:0.25;"/>
<line x1="368.800000" y1="127.000000" x2="368.800000" y2="169.000000"  style="stroke: black; stroke-linecap:round; stroke-width:0.25; stroke-dasharray:3,3;"/>
<line x1="368.800000" y1="169.000000" x2="444.600000" y2="169.000000"  style="stroke: black; stroke-linecap:round; stroke-width:0.25; stroke-dasharray:3,3;"/>
<line x1="444.600000" y1="169.000000" x2="444.600000" y2="127.000000"  style="stroke: black; stroke-linecap:round; stroke-width:0.25; stroke-dasharray:3,3;"/>
<line x1="368.800000" y1="127.000000" x2="373.800000" y2="127.000000"  style="stroke: black; stroke-linecap:round; stroke-width:0.25; stroke-dasharray:3,3;"/>
<line x1="409.275000" y1="127.000000" x2="444.600000" y2="127.000000"  style="stroke: black; stroke-linecap:round; stroke-width:0.25; stroke-dasharray:3,3;"/>
<text x="373.800000" y="129.000000" font-family="Arial" font-size="7">hgroup(Z)</text>
<line x1="15.000000" y1="15.000000" x2="15.000000" y2="185.000000"  style="stroke: black; stroke-linecap:round; stroke-width:0.25; stroke-dasharray:3,3;"/>
<line x1="15.000000" y1="185.000000" x2="478.600000" y2="185.000000"  style="stroke: black; stroke-linecap:round; stroke-width:0.25; stroke-dasharray:3,3;"/>
<line x1="478.600000" y1="185.000000" x2="478.600000" y2="15.000000"  style="stroke: black; stroke-linecap:round; stroke-width:0.25; stroke-dasharray:3,3;"/>
<line x1="15.000000" y1="15.000000" x2="20.000000" y2="15.000000"  style="stroke: black; stroke-linecap:round; stroke-width:0.25; stroke-dasharray:3,3;"/>
<line x1="49.025000" y1="15.000000" x2="478.600000" y2="15.000000"  style="stroke: black; stroke-linecap:round; stroke-width:0.25; stroke-dasharray:3,3;"/>
<text x="20.000000" y="17.000000" font-family="Arial" font-size="7">process</text>
<line x1="480.600000" y1="87.000000" x2="483.600000" y2="88.000000"  transform="rotate(0.000000,483.600000,88.000000)" style="stroke: black; stroke-width:0.25;"/>
<line x1="480.600000" y1="89.000000" x2="483.600000" y2="88.000000"  transform="rotate(0.000000,483.600000,88.000000)" style="stroke: black; stroke-width:0.25;"/>
<line x1="480.600000" y1="95.000000" x2="483.600000" y2="96.000000"  transform="rotate(0.000000,483.600000,96.000000)" style="stroke: black; stroke-width:0.25;"/>
<line x1="480.600000" y1="97.000000" x2="483.600000" y2="96.000000"  transform="rotate(0.000000,483.600000,96.000000)" style="stroke: black; stroke-width:0.25;"/>
<line x1="480.600000" y1="103.000000" x2="483.600000" y2="104.000000"  transform="rotate(0.000000,483.600000,104.000000)" style="stroke: black; stroke-width:0.25;"/>
<line x1="480.600000" y1="105.000000" x2="483.600000" y2="104.000000"  transform="rotate(0.000000,483.600000,104.000000)" style="stroke: black; stroke-width:0.25;"/>
<line x1="480.600000" y1="111.000000" x2="483.600000" y2="112.000000"  transform="rotate(0.000000,483.600000,112.000000)" style="stroke: black; stroke-width:0.25;"/>
<line x1="480.600000" y1="113.000000" x2="483.600000" y2="112.000000"  transform="rotate(0.000000,483.600000,112.000000)" style="stroke: black; stroke-width:0.25;"/>
<line x1="10.000000" y1="84.000000" x2="20.000000" y2="84.000000"  style="stroke:black; stroke-linecap:round; stroke-width:0.25;"/>
<line x1="10.000000" y1="92.000000" x2="20.000000" y2="92.000000"  style="stroke:black; stroke-linecap:round; stroke-width:0.25;"/>
<line x1="10.000000" y1="100.000000" x2="20.000000" y2="100.000000"  style="stroke:black; stroke-linecap:round; stroke-width:0.25;"/>
<line x1="10.000000" y1="108.000000" x2="20.000000" y2="108.000000"  style="stroke:black; stroke-linecap:round; stroke-width:0.25;"/>
<line x1="10.000000" y1="116.000000" x2="20.000000" y2="116.000000"  style="stroke:black; stroke-linecap:round; stroke-width:0.25;"/>
<line x1="20.000000" y1="84.000000" x2="24.000000" y2="84.000000"  style="stroke:black; stroke-linecap:round; stroke-width:0.25;"/>
<line x1="20.000000" y1="92.000000" x2="24.000000" y2="92.000000"  style="stroke:black; stroke-linecap:round; stroke-width:0.25;"/>
<line x1="20.000000" y1="100.000000" x2="24.000000" y2="100.000000"  style="stroke:black; stroke-linecap:round; stroke-width:0.25;"/>
<line x1="20.000000" y1="108.000000" x2="24.000000" y2="108.000000"  style="stroke:black; stroke-linecap:round; stroke-width:0.25;"/>
<line x1="20.000000" y1="116.000000" x2="24.000000" y2="116.000000"  style="stroke:black; stroke-linecap:round; stroke-width:0.25;"/>
<line x1="24.000000" y1="84.000000" x2="28.000000" y2="84.000000"  style="stroke:black; stroke-linecap:round; stroke-width:0.25;"/>
<line x1="24.000000" y1="92.000000" x2="28.000000" y2="92.000000"  style="stroke:black; stroke-linecap:round; stroke-width:0.25;"/>
<line x1="24.000000" y1="100.000000" x2="28.000000" y2="100.000000"  style="stroke:black; stroke-linecap:round; stroke-width:0.25;"/>
<line x1="24.000000" y1="108.000000" x2="28.000000" y2="108.000000"  style="stroke:black; stroke-linecap:round; stroke-width:0.25;"/>
<line x1="24.000000" y1="116.000000" x2="28.000000" y2="116.000000"  style="stroke:black; stroke-linecap:round; stroke-width:0.25;"/>
<line x1="28.000000" y1="36.000000" x2="44.000000" y2="36.000000"  style="stroke:black; stroke-linecap:round; stroke-width:0.25;"/>
<line x1="28.000000" y1="84.000000" x2="28.000000" y2="36.000000"  style="stroke:black; stroke-linecap:round; stroke-width:0.25;"/>
<line x1="28.000000" y1="84.000000" x2="28.000000" y2="84.000000"  style="stroke:black; stroke-linecap:round; stroke-width:0.25;"/>
<line x1="28.000000" y1="92.000000" x2="36.000000" y2="92.000000"  style="stroke:black; stroke-linecap:round; stroke-width:0.25;"/>
<line x1="28.000000" y1="100.000000" x2="44.000000" y2="100.000000"  style="stroke:black; stroke-linecap:round; stroke-width:0.25;"/>
<line x1="28.000000" y1="108.000000" x2="44.000000" y2="108.000000"  style="stroke:black; stroke-linecap:round; stroke-width:0.25;"/>
<line x1="28.000000" y1="116.000000" x2="36.000000" y2="116.000000"  style="stroke:black; stroke-linecap:round; stroke-width:0.25;"/>
<line x1="36.000000" y1="68.000000" x2="44.000000" y2="68.000000"  style="stroke:black; stroke-linecap:round; stroke-width:0.25;"/>
<line x1="36.000000" y1="92.000000" x2="36.000000" y2="68.000000"  style="stroke:black; stroke-linecap:round; stroke-width:0.25;"/>
<line x1="36.000000" y1="116.000000" x2="36.000000" y2="164.000000"  style="stroke:black; stroke-linecap:round; stroke-width:0.25;"/>
<line x1="36.000000" y1="164.000000" x2="44.000000" y2="164.000000"  style="stroke:black; stroke-linecap:round; stroke-width:0.25;"/>
<line x1="44.000000" y1="36.000000" x2="48.000000" y2="36.000000"  style="stroke:black; stroke-linecap:round; stroke-width:0.25;"/>
<line x1="44.000000" y1="68.000000" x2="48.000000" y2="68.000000"  style="stroke:black; stroke-linecap:round; stroke-width:0.25;"/>
<line x1="44.000000" y1="100.000000" x2="48.000000" y2="100.000000"  style="stroke:black; stroke-linecap:round; stroke-width:0.25;"/>
<line x1="44.000000" y1="108.000000" x2="44.000000" y2="132.000000"  style="stroke:black; stroke-linecap:round; stroke-width:0.25;"/>
<line x1="44.000000" y1="132.000000" x2="44.000000" y2="132.000000"  style="stroke:black; stroke-linecap:round; stroke-width:0.25;"/>
<line x1="44.000000" y1="132.000000" x2="48.000000" y2="132.000000"  style="stroke:black; stroke-linecap:round; stroke-width:0.25;"/>
<line x1="44.000000" y1="164.000000" x2="48.000000" y2="164.000000"  style="stroke:black; stroke-linecap:round; stroke-width:0.25;"/>
<line x1="114.000000" y1="84.000000" x2="118.000000" y2="84.000000"  style="stroke:black; stroke-linecap:round; stroke-width:0.25;"/>
<line x1="114.000000" y1="116.000000" x2="118.000000" y2="116.000000"  style="stroke:black; stroke-linecap:round; stroke-width:0.25;"/>
<line x1="118.000000" y1="84.000000" x2="166.000000" y2="48.000000"  style="stroke:black; stroke-linecap:round; stroke-width:0.25;"/>
<line x1="118.000000" y1="84.000000" x2="166.000000" y2="80.000000"  style="stroke:black; stroke-linecap:round; stroke-width:0.25;"/>
<line x1="118.000000" y1="116.000000" x2="166.000000" y2="56.000000"  style="stroke:black; stroke-linecap:round; stroke-width:0.25;"/>
<line x1="118.000000" y1="116.000000" x2="166.000000" y2="88.000000"  style="stroke:black; stroke-linecap:round; stroke-width:0.25;"/>
<line x1="166.000000" y1="48.000000" x2="186.000000" y2="48.000000"  style="stroke:black; stroke-linecap:round; stroke-width:0.25;"/>
<line x1="166.000000" y1="56.000000" x2="186.000000" y2="56.000000"  style="stroke:black; stroke-linecap:round; stroke-width:0.25;"/>
<line x1="166.000000" y1="80.000000" x2="186.000000" y2="80.000000"  style="stroke:black; stroke-linecap:round; stroke-width:0.25;"/>
<line x1="166.000000" y1="88.000000" x2="186.000000" y2="88.000000"  style="stroke:black; stroke-linecap:round; stroke-width:0.25;"/>
<line x1="186.000000" y1="48.000000" x2="190.000000" y2="48.000000"  style="stroke:black; stroke-linecap:round; stroke-width:0.25;"/>
<line x1="186.000000" y1="56.000000" x2="190.000000" y2="56.000000"  style="stroke:black; stroke-linecap:round; stroke-width:0.25;"/>
<line x1="186.000000" y1="80.000000" x2="190.000000" y2="80.000000"  style="stroke:black; stroke-linecap:round; stroke-width:0.25;"/>
<line x1="186.000000" y1="88.000000" x2="190.000000" y2="88.000000"  style="stroke:black; stroke-linecap:round; stroke-width:0.25;"/>
<line x1="194.000000" y1="116.000000" x2="198.000000" y2="116.000000"  style="stroke:black; stroke-linecap:round; stroke-width:0.25;"/>
<line x1="194.000000" y1="148.000000" x2="198.000000" y2="148.000000"  style="stroke:black; stroke-linecap:round; stroke-width:0.25;"/>
<line x1="198.000000" y1="116.000000" x2="206.000000" y2="116.000000"  style="stroke:black; stroke-linecap:round; stroke-width:0.25;"/>
<line x1="198.000000" y1="136.000000" x2="206.000000" y2="136.000000"  style="stroke:black; stroke-linecap:round; stroke-width:0.25;"/>
<line x1="198.000000" y1="148.000000" x2="198.000000" y2="136.000000"  style="stroke:black; stroke-linecap:round; stroke-width:0.25;"/>
<line x1="198.000000" y1="148.000000" x2="198.000000" y2="148.000000"  style="stroke:black; stroke-linecap:round; stroke-width:0.25;"/>
<line x1="206.000000" y1="116.000000" x2="206.000000" y2="128.000000"  style="stroke:black; stroke-linecap:round; stroke-width:0.25;"/>
<line x1="206.000000" y1="128.000000" x2="206.000000" y2="128.000000"  style="stroke:black; stroke-linecap:round; stroke-width:0.25;"/>
<line x1="206.000000" y1="128.000000" x2="210.000000" y2="128.000000"  style="stroke:black; stroke-linecap:round; stroke-width:0.25;"/>
<line x1="206.000000" y1="136.000000" x2="210.000000" y2="136.000000"  style="stroke:black; stroke-linecap:round; stroke-width:0.25;"/>
<line x1="215.800000" y1="52.000000" x2="219.800000" y2="52.000000"  style="stroke:black; stroke-linecap:round; stroke-width:0.25;"/>
<line x1="215.800000" y1="84.000000" x2="219.800000" y2="84.000000"  style="stroke:black; stroke-linecap:round; stroke-width:0.25;"/>
<line x1="219.800000" y1="52.000000" x2="239.800000" y2="52.000000"  style="stroke:black; stroke-linecap:round; stroke-width:0.25;"/>
<line x1="219.800000" y1="84.000000" x2="239.800000" y2="84.000000"  style="stroke:black; stroke-linecap:round; stroke-width:0.25;"/>
<line x1="235.800000" y1="132.000000" x2="239.800000" y2="132.000000"  style="stroke:black; stroke-linecap:round; stroke-width:0.25;"/>
<line x1="239.800000" y1="52.000000" x2="249.800000" y2="52.000000"  style="stroke:black; stroke-linecap:round; stroke-width:0.25;"/>
<line x1="239.800000" y1="84.000000" x2="249.800000" y2="84.000000"  style="stroke:black; stroke-linecap:round; stroke-width:0.25;"/>
<line x1="239.800000" y1="132.000000" x2="249.800000" y2="132.000000"  style="stroke:black; stroke-linecap:round; stroke-width:0.25;"/>
<line x1="249.800000" y1="52.000000" x2="323.800000" y2="83.840000"  style="stroke:black; stroke-linecap:round; stroke-width:0.25;"/>
<line x1="249.800000" y1="52.000000" x2="323.800000" y2="99.920000"  style="stroke:black; stroke-linecap:round; stroke-width:0.25;"/>
<line x1="249.800000" y1="84.000000" x2="323.800000" y2="116.080000"  style="stroke:black; stroke-linecap:round; stroke-width:0.25;"/>
<line x1="249.800000" y1="132.000000" x2="323.800000" y2="91.920000"  style="stroke:black; stroke-linecap:round; stroke-width:0.25;"/>
<line x1="249.800000" y1="132.000000" x2="323.800000" y2="108.000000"  style="stroke:black; stroke-linecap:round; stroke-width:0.25;"/>
<line x1="323.800000" y1="38.000000" x2="363.800000" y2="38.000000"  style="stroke:black; stroke-linecap:round; stroke-width:0.25;"/>
<line x1="323.800000" y1="83.840000" x2="323.800000" y2="38.000000"  style="stroke:black; stroke-linecap:round; stroke-width:0.25;"/>
<line x1="323.800000" y1="83.840000" x2="323.800000" y2="83.840000"  style="stroke:black; stroke-linecap:round; stroke-width:0.25;"/>
<line x1="323.800000" y1="91.920000" x2="331.800000" y2="91.920000"  style="stroke:black; stroke-linecap:round; stroke-width:0.25;"/>
<line x1="323.800000" y1="99.920000" x2="339.800000" y2="99.920000"  style="stroke:black; stroke-linecap:round; stroke-width:0.25;"/>
<line x1="323.800000" y1="108.000000" x2="347.800000" y2="108.000000"  style="stroke:black; stroke-linecap:round; stroke-width:0.25;"/>
<line x1="323.800000" y1="116.080000" x2="355.800000" y2="116.080000"  style="stroke:black; stroke-linecap:round; stroke-width:0.25;"/>
<line x1="331.800000" y1="46.000000" x2="363.800000" y2="46.000000"  style="stroke:black; stroke-linecap:round; stroke-width:0.25;"/>
<line x1="331.800000" y1="91.920000" x2="331.800000" y2="46.000000"  style="stroke:black; stroke-linecap:round; stroke-width:0.25;"/>
<line x1="339.800000" y1="70.000000" x2="363.800000" y2="70.000000"  style="stroke:black; stroke-linecap:round; stroke-width:0.25;"/>
<line x1="339.800000" y1="99.920000" x2="339.800000" y2="70.000000"  style="stroke:black; stroke-linecap:round; stroke-width:0.25;"/>
<line x1="347.800000" y1="78.000000" x2="363.800000" y2="78.000000"  style="stroke:black; stroke-linecap:round; stroke-width:0.25;"/>
<line x1="347.800000" y1="108.000000" x2="347.800000" y2="78.000000"  style="stroke:black; stroke-linecap:round; stroke-width:0.25;"/>
<line x1="355.800000" y1="106.000000" x2="363.800000" y2="106.000000"  style="stroke:black; stroke-linecap:round; stroke-width:0.25;"/>
<line x1="355.800000" y1="116.080000" x2="355.800000" y2="106.000000"  style="stroke:black; stroke-linecap:round; stroke-width:0.25;"/>
<line x1="363.800000" y1="38.000000" x2="390.700000" y2="38.000000"  style="stroke:black; stroke-linecap:round; stroke-width:0.25;"/>
<line x1="363.800000" y1="46.000000" x2="390.700000" y2="46.000000"  style="stroke:black; stroke-linecap:round; stroke-width:0.25;"/>
<line x1="363.800000" y1="70.000000" x2="390.700000" y2="70.000000"  style="stroke:black; stroke-linecap:round; stroke-width:0.25;"/>
<line x1="363.800000" y1="78.000000" x2="390.700000" y2="78.000000"  style="stroke:black; stroke-linecap:round; stroke-width:0.25;"/>
<line x1="363.800000" y1="106.000000" x2="390.700000" y2="106.000000"  style="stroke:black; stroke-linecap:round; stroke-width:0.25;"/>
<line x1="390.700000" y1="38.000000" x2="394.700000" y2="38.000000"  style="stroke:black; stroke-linecap:round; stroke-width:0.25;"/>
<line x1="390.700000" y1="46.000000" x2="394.700000" y2="46.000000"  style="stroke:black; stroke-linecap:round; stroke-width:0.25;"/>
<line x1="390.700000" y1="70.000000" x2="394.700000" y2="70.000000"  style="stroke:black; stroke-linecap:round; stroke-width:0.25;"/>
<line x1="390.700000" y1="78.000000" x2="394.700000" y2="78.000000"  style="stroke:black; stroke-linecap:round; stroke-width:0.25;"/>
<line x1="390.700000" y1="106.000000" x2="394.700000" y2="106.000000"  style="stroke:black; stroke-linecap:round; stroke-width:0.25;"/>
<line x1="401.800000" y1="148.000000" x2="405.800000" y2="148.000000"  style="stroke:black; stroke-linecap:round; stroke-width:0.25;"/>
<line x1="405.800000" y1="148.000000" x2="405.800000" y2="148.000000"  style="stroke:black; stroke-linecap:round; stroke-width:0.25;"/>
<line x1="405.800000" y1="148.000000" x2="409.800000" y2="148.000000"  style="stroke:black; stroke-linecap:round; stroke-width:0.25;"/>
<line x1="418.700000" y1="42.000000" x2="422.700000" y2="42.000000"  style="stroke:black; stroke-linecap:round; stroke-width:0.25;"/>
<line x1="418.700000" y1="74.000000" x2="422.700000" y2="74.000000"  style="stroke:black; stroke-linecap:round; stroke-width:0.25;"/>
<line x1="418.700000" y1="106.000000" x2="422.700000" y2="106.000000"  style="stroke:black; stroke-linecap:round; stroke-width:0.25;"/>
<line x1="422.700000" y1="42.000000" x2="449.600000" y2="42.000000"  style="stroke:black; stroke-linecap:round; stroke-width:0.25;"/>
<line x1="422.700000" y1="74.000000" x2="449.600000" y2="74.000000"  style="stroke:black; stroke-linecap:round; stroke-width:0.25;"/>
<line x1="422.700000" y1="106.000000" x2="449.600000" y2="106.000000"  style="stroke:black; stroke-linecap:round; stroke-width:0.25;"/>
<line x1="435.600000" y1="148.000000" x2="439.600000" y2="148.000000"  style="stroke:black; stroke-linecap:round; stroke-width:0.25;"/>
<line x1="439.600000" y1="148.000000" x2="449.600000" y2="148.000000"  style="stroke:black; stroke-linecap:round; stroke-width:0.25;"/>
<line x1="449.600000" y1="42.000000" x2="465.600000" y2="42.000000"  style="stroke:black; stroke-linecap:round; stroke-width:0.25;"/>
<line x1="449.600000" y1="74.000000" x2="457.600000" y2="74.000000"  style="stroke:black; stroke-linecap:round; stroke-width:0.25;"/>
<line x1="449.600000" y1="104.000000" x2="465.600000" y2="104.000000"  style="stroke:black; stroke-linecap:round; stroke-width:0.25;"/>
<line x1="449.600000" y1="106.000000" x2="449.600000" y2="104.000000"  style="stroke:black; stroke-linecap:round; stroke-width:0.25;"/>
<line x1="449.600000" y1="106.000000" x2="449.600000" y2="106.000000"  style="stroke:black; stroke-linecap:round; stroke-width:0.25;"/>
<line x1="449.600000" y1="148.000000" x2="457.600000" y2="148.000000"  style="stroke:black; stroke-linecap:round; stroke-width:0.25;"/>
<line x1="457.600000" y1="74.000000" x2="457.600000" y2="96.000000"  style="stroke:black; stroke-linecap:round; stroke-width:0.25;"/>
<line x1="457.600000" y1="96.000000" x2="465.600000" y2="96.000000"  style="stroke:black; stroke-linecap:round; stroke-width:0.25;"/>
<line x1="457.600000" y1="112.000000" x2="465.600000" y2="112.000000"  style="stroke:black; stroke-linecap:round; stroke-width:0.25;"/>
<line x1="457.600000" y1="148.000000" x2="457.600000" y2="112.000000"  style="stroke:black; stroke-linecap:round; stroke-width:0.25;"/>
<line x1="465.600000" y1="42.000000" x2="465.600000" y2="88.000000"  style="stroke:black; stroke-linecap:round; stroke-width:0.25;"/>
<line x1="465.600000" y1="88.000000" x2="465.600000" y2="88.000000"  style="stroke:black; stroke-linecap:round; stroke-width:0.25;"/>
<line x1="465.600000" y1="88.000000" x2="469.600000" y2="88.000000"  style="stroke:black; stroke-linecap:round; stroke-width:0.25;"/>
<line x1="465.600000" y1="96.000000" x2="469.600000" y2="96.000000"  style="stroke:black; stroke-linecap:round; stroke-width:0.25;"/>
<line x1="465.600000" y1="104.000000" x2="469.600000" y2="104.000000"  style="stroke:black; stroke-linecap:round; stroke-width:0.25;"/>
<line x1="465.600000" y1="112.000000" x2="469.600000" y2="112.000000"  style="stroke:black; stroke-linecap:round; stroke-width:0.25;"/>
<line x1="469.600000" y1="88.000000" x2="473.600000" y2="88.000000"  style="stroke:black; stroke-linecap:round; stroke-width:0.25;"/>
<line x1="469.600000" y1="96.000000" x2="473.600000" y2="96.000000"  style="stroke:black; stroke-linecap:round; stroke-width:0.25;"/>
<line x1="469.600000" y1="104.000000" x2="473.600000" y2="104.000000"  style="stroke:black; stroke-linecap:round; stroke-width:0.25;"/>
<line x1="469.600000" y1="112.000000" x2="473.600000" y2="112.000000"  style="stroke:black; stroke-linecap:round; stroke-width:0.25;"/>
<line x1="473.600000" y1="88.000000" x2="483.600000" y2="88.000000"  style="stroke:black; stroke-linecap:round; stroke-width:0.25;"/>
<line x1="473.600000" y1="96.000000" x2="483.600000" y2="96.000000"  style="stroke:black; stroke-linecap:round; stroke-width:0.25;"/>
<line x1="473.600000" y1="104.000000" x2="483.600000" y2="104.000000"  style="stroke:black; stroke-linecap:round; stroke-width:0.25;"/>
<line x1="473.600000" y1="112.000000" x2="483.600000" y2="112.000000"  style="stroke:black; stroke-linecap:round; stroke-width:0.25;"/>
</svg>
