<?xml version="1.0"?>
<svg xmlns="http://www.w3.org/2000/svg" xmlns:xlink="http://www.w3.org/1999/xlink" viewBox="0 0 150.800000 124.000000" width="75.400000mm" height="62.000000mm" version="1.1">
<rect x="1.000000" y="1.000000" width="149.800000" height="123.000000" rx="0" ry="0" style="stroke:none;fill:#cccccc;"/>
<rect x="0.000000" y="0.000000" width="149.800000" height="123.000000" rx="0" ry="0" style="stroke:none;fill:#ffffff;"/>
<text x="10.000000" y="7.000000" font-family="Arial" font-size="7"></text>
<a xlink:href="mid-0x7ff9cbe84730.svg">
<rect x="76.900000" y="35.000000" width="24.000000" height="24.000000" rx="0" ry="0" style="stroke:none;fill:#cccccc;"/>
<rect x="75.900000" y="34.000000" width="24.000000" height="24.000000" rx="0" ry="0" style="stroke:none;fill:#003366;"/>
</a>
<a xlink:href="mid-0x7ff9cbe84730.svg">
<text x="87.900000" y="48.000000" font-family="Arial" font-size="7" text-anchor="middle" fill="#FFFFFF">mid</text>
</a>
<circle cx="77.900000" cy="36.000000" r="1"/>
<line x1="72.900000" y1="41.000000" x2="75.900000" y2="42.000000"  transform="rotate(0.000000,75.900000,42.000000)" style="stroke: black; stroke-width:0.25;"/>
<line x1="72.900000" y1="43.000000" x2="75.900000" y2="42.000000"  transform="rotate(0.000000,75.900000,42.000000)" style="stroke: black; stroke-width:0.25;"/>
<line x1="72.900000" y1="49.000000" x2="75.900000" y2="50.000000"  transform="rotate(0.000000,75.900000,50.000000)" style="stroke: black; stroke-width:0.25;"/>
<line x1="72.900000" y1="51.000000" x2="75.900000" y2="50.000000"  transform="rotate(0.000000,75.900000,50.000000)" style="stroke: black; stroke-width:0.25;"/>
<a xlink:href="side-0x7ff9cbe849e0.svg">
<rect x="76.000000" y="67.000000" width="25.800000" height="24.000000" rx="0" ry="0" style="stroke:none;fill:#cccccc;"/>
<rect x="75.000000" y="66.000000" width="25.800000" height="24.000000" rx="0" ry="0" style="stroke:none;fill:#003366;"/>
</a>
<a xlink:href="side-0x7ff9cbe849e0.svg">
<text x="87.900000" y="80.000000" font-family="Arial" font-size="7" text-anchor="middle" fill="#FFFFFF">side</text>
</a>
<circle cx="77.000000" cy="68.000000" r="1"/>
<line x1="72.000000" y1="73.000000" x2="75.000000" y2="74.000000"  transform="rotate(0.000000,75.000000,74.000000)" style="stroke: black; stroke-width:0.25;"/>
<line x1="72.000000" y1="75.000000" x2="75.000000" y2="74.000000"  transform="rotate(0.000000,75.000000,74.000000)" style="stroke: black; stroke-width:0.25;"/>
<line x1="72.000000" y1="81.000000" x2="75.000000" y2="82.000000"  transform="rotate(0.000000,75.000000,82.000000)" style="stroke: black; stroke-width:0.25;"/>
<line x1="72.000000" y1="83.000000" x2="75.000000" y2="82.000000"  transform="rotate(0.000000,75.000000,82.000000)" style="stroke: black; stroke-width:0.25;"/>
<line x1="66.000000" y1="25.000000" x2="66.000000" y2="99.000000"  style="stroke: black; stroke-linecap:round; stroke-width:0.25; stroke-dasharray:3,3;"/>
<line x1="66.000000" y1="99.000000" x2="109.800000" y2="99.000000"  style="stroke: black; stroke-linecap:round; stroke-width:0.25; stroke-dasharray:3,3;"/>
<line x1="109.800000" y1="99.000000" x2="109.800000" y2="25.000000"  style="stroke: black; stroke-linecap:round; stroke-width:0.25; stroke-dasharray:3,3;"/>
<line x1="66.000000" y1="25.000000" x2="71.000000" y2="25.000000"  style="stroke: black; stroke-linecap:round; stroke-width:0.25; stroke-dasharray:3,3;"/>
<line x1="109.800000" y1="25.000000" x2="109.800000" y2="25.000000"  style="stroke: black; stroke-linecap:round; stroke-width:0.25; stroke-dasharray:3,3;"/>
<text x="71.000000" y="27.000000" font-family="Arial" font-size="7">hgroup(M/S)</text>
<line x1="15.000000" y1="15.000000" x2="15.000000" y2="109.000000"  style="stroke: black; stroke-linecap:round; stroke-width:0.25; stroke-dasharray:3,3;"/>
<line x1="15.000000" y1="109.000000" x2="135.800000" y2="109.000000"  style="stroke: black; stroke-linecap:round; stroke-width:0.25; stroke-dasharray:3,3;"/>
<line x1="135.800000" y1="109.000000" x2="135.800000" y2="15.000000"  style="stroke: black; stroke-linecap:round; stroke-width:0.25; stroke-dasharray:3,3;"/>
<line x1="15.000000" y1="15.000000" x2="20.000000" y2="15.000000"  style="stroke: black; stroke-linecap:round; stroke-width:0.25; stroke-dasharray:3,3;"/>
<line x1="49.025000" y1="15.000000" x2="135.800000" y2="15.000000"  style="stroke: black; stroke-linecap:round; stroke-width:0.25; stroke-dasharray:3,3;"/>
<text x="20.000000" y="17.000000" font-family="Arial" font-size="7">process</text>
<line x1="137.800000" y1="57.000000" x2="140.800000" y2="58.000000"  transform="rotate(0.000000,140.800000,58.000000)" style="stroke: black; stroke-width:0.25;"/>
<line x1="137.800000" y1="59.000000" x2="140.800000" y2="58.000000"  transform="rotate(0.000000,140.800000,58.000000)" style="stroke: black; stroke-width:0.25;"/>
<line x1="137.800000" y1="65.000000" x2="140.800000" y2="66.000000"  transform="rotate(0.000000,140.800000,66.000000)" style="stroke: black; stroke-width:0.25;"/>
<line x1="137.800000" y1="67.000000" x2="140.800000" y2="66.000000"  transform="rotate(0.000000,140.800000,66.000000)" style="stroke: black; stroke-width:0.25;"/>
<line x1="10.000000" y1="58.000000" x2="20.000000" y2="58.000000"  style="stroke:black; stroke-linecap:round; stroke-width:0.25;"/>
<line x1="10.000000" y1="66.000000" x2="20.000000" y2="66.000000"  style="stroke:black; stroke-linecap:round; stroke-width:0.25;"/>
<line x1="20.000000" y1="58.000000" x2="24.000000" y2="58.000000"  style="stroke:black; stroke-linecap:round; stroke-width:0.25;"/>
<line x1="20.000000" y1="66.000000" x2="24.000000" y2="66.000000"  style="stroke:black; stroke-linecap:round; stroke-width:0.25;"/>
<line x1="24.000000" y1="58.000000" x2="28.000000" y2="58.000000"  style="stroke:black; stroke-linecap:round; stroke-width:0.25;"/>
<line x1="24.000000" y1="66.000000" x2="28.000000" y2="66.000000"  style="stroke:black; stroke-linecap:round; stroke-width:0.25;"/>
<line x1="28.000000" y1="58.000000" x2="28.000000" y2="58.000000"  style="stroke:black; stroke-linecap:round; stroke-width:0.25;"/>
<line x1="28.000000" y1="58.000000" x2="32.000000" y2="58.000000"  style="stroke:black; stroke-linecap:round; stroke-width:0.25;"/>
<line x1="28.000000" y1="66.000000" x2="28.000000" y2="66.000000"  style="stroke:black; stroke-linecap:round; stroke-width:0.25;"/>
<line x1="28.000000" y1="66.000000" x2="32.000000" y2="66.000000"  style="stroke:black; stroke-linecap:round; stroke-width:0.25;"/>
<line x1="32.000000" y1="58.000000" x2="36.000000" y2="58.000000"  style="stroke:black; stroke-linecap:round; stroke-width:0.25;"/>
<line x1="32.000000" y1="66.000000" x2="36.000000" y2="66.000000"  style="stroke:black; stroke-linecap:round; stroke-width:0.25;"/>
<line x1="36.000000" y1="58.000000" x2="61.000000" y2="42.000000"  style="stroke:black; stroke-linecap:round; stroke-width:0.25;"/>
<line x1="36.000000" y1="58.000000" x2="61.000000" y2="74.000000"  style="stroke:black; stroke-linecap:round; stroke-width:0.25;"/>
<line x1="36.000000" y1="66.000000" x2="61.000000" y2="50.000000"  style="stroke:black; stroke-linecap:round; stroke-width:0.25;"/>
<line x1="36.000000" y1="66.000000" x2="61.000000" y2="82.000000"  style="stroke:black; stroke-linecap:round; stroke-width:0.25;"/>
<line x1="61.000000" y1="42.000000" x2="71.000000" y2="42.000000"  style="stroke:black; stroke-linecap:round; stroke-width:0.25;"/>
<line x1="61.000000" y1="50.000000" x2="71.000000" y2="50.000000"  style="stroke:black; stroke-linecap:round; stroke-width:0.25;"/>
<line x1="61.000000" y1="74.000000" x2="71.000000" y2="74.000000"  style="stroke:black; stroke-linecap:round; stroke-width:0.25;"/>
<line x1="61.000000" y1="82.000000" x2="71.000000" y2="82.000000"  style="stroke:black; stroke-linecap:round; stroke-width:0.25;"/>
<line x1="71.000000" y1="42.000000" x2="71.900000" y2="42.000000"  style="stroke:black; stroke-linecap:round; stroke-width:0.25;"/>
<line x1="71.000000" y1="50.000000" x2="71.900000" y2="50.000000"  style="stroke:black; stroke-linecap:round; stroke-width:0.25;"/>
<line x1="71.000000" y1="74.000000" x2="75.000000" y2="74.000000"  style="stroke:black; stroke-linecap:round; stroke-width:0.25;"/>
<line x1="71.000000" y1="82.000000" x2="75.000000" y2="82.000000"  style="stroke:black; stroke-linecap:round; stroke-width:0.25;"/>
<line x1="71.900000" y1="42.000000" x2="75.900000" y2="42.000000"  style="stroke:black; stroke-linecap:round; stroke-width:0.25;"/>
<line x1="71.900000" y1="50.000000" x2="75.900000" y2="50.000000"  style="stroke:black; stroke-linecap:round; stroke-width:0.25;"/>
<line x1="99.900000" y1="46.000000" x2="103.900000" y2="46.000000"  style="stroke:black; stroke-linecap:round; stroke-width:0.25;"/>
<line x1="100.800000" y1="78.000000" x2="104.800000" y2="78.000000"  style="stroke:black; stroke-linecap:round; stroke-width:0.25;"/>
<line x1="103.900000" y1="46.000000" x2="104.800000" y2="46.000000"  style="stroke:black; stroke-linecap:round; stroke-width:0.25;"/>
<line x1="104.800000" y1="78.000000" x2="114.800000" y2="78.000000"  style="stroke:black; stroke-linecap:round; stroke-width:0.25;"/>
<line x1="104.800000" y1="46.000000" x2="114.800000" y2="46.000000"  style="stroke:black; stroke-linecap:round; stroke-width:0.25;"/>
<line x1="114.800000" y1="66.000000" x2="122.800000" y2="66.000000"  style="stroke:black; stroke-linecap:round; stroke-width:0.25;"/>
<line x1="114.800000" y1="78.000000" x2="114.800000" y2="66.000000"  style="stroke:black; stroke-linecap:round; stroke-width:0.25;"/>
<line x1="114.800000" y1="78.000000" x2="114.800000" y2="78.000000"  style="stroke:black; stroke-linecap:round; stroke-width:0.25;"/>
<line x1="114.800000" y1="46.000000" x2="122.800000" y2="46.000000"  style="stroke:black; stroke-linecap:round; stroke-width:0.25;"/>
<line x1="122.800000" y1="58.000000" x2="126.800000" y2="58.000000"  style="stroke:black; stroke-linecap:round; stroke-width:0.25;"/>
<line x1="122.800000" y1="66.000000" x2="126.800000" y2="66.000000"  style="stroke:black; stroke-linecap:round; stroke-width:0.25;"/>
<line x1="122.800000" y1="46.000000" x2="122.800000" y2="58.000000"  style="stroke:black; stroke-linecap:round; stroke-width:0.25;"/>
<line x1="122.800000" y1="58.000000" x2="122.800000" y2="58.000000"  style="stroke:black; stroke-linecap:round; stroke-width:0.25;"/>
<line x1="126.800000" y1="58.000000" x2="130.800000" y2="58.000000"  style="stroke:black; stroke-linecap:round; stroke-width:0.25;"/>
<line x1="126.800000" y1="66.000000" x2="130.800000" y2="66.000000"  style="stroke:black; stroke-linecap:round; stroke-width:0.25;"/>
<line x1="130.800000" y1="58.000000" x2="140.800000" y2="58.000000"  style="stroke:black; stroke-linecap:round; stroke-width:0.25;"/>
<line x1="130.800000" y1="66.000000" x2="140.800000" y2="66.000000"  style="stroke:black; stroke-linecap:round; stroke-width:0.25;"/>
</svg>
